/* XPM */
static char *Agoblin_idle_anim32_f[] = {
/* columns rows colors chars-per-pixel */
"32 32 130 2 ",
"   c #030306",
".  c #030307",
"X  c #040307",
"o  c #030407",
"O  c #050407",
"+  c #060508",
"@  c #070809",
"#  c #090A0A",
"$  c #090B0A",
"%  c #0E110C",
"&  c #0F130D",
"*  c #10140D",
"=  c #10160E",
"-  c #12170F",
";  c #14150E",
":  c #18100F",
">  c #131A0F",
",  c #1A1310",
"<  c #1E1311",
"1  c #1E1411",
"2  c #141A10",
"3  c #141C10",
"4  c #171E11",
"5  c #211612",
"6  c #301D17",
"7  c #301E18",
"8  c #192112",
"9  c #1C2614",
"0  c #1D2715",
"q  c #1E2815",
"w  c #1E2915",
"e  c #242215",
"r  c #212D17",
"t  c #2C2719",
"y  c #292818",
"u  c #3F261D",
"i  c #243118",
"p  c #243218",
"a  c #263419",
"s  c #28371A",
"d  c #2C3D1D",
"f  c #2E3F1D",
"g  c #2C3D1E",
"h  c #34391E",
"j  c #41271D",
"k  c #512F23",
"l  c #473221",
"z  c #4C3924",
"x  c #513023",
"c  c #543325",
"v  c #593426",
"b  c #5A3627",
"n  c #5C3828",
"m  c #603B2A",
"M  c #663B2B",
"N  c #2F411E",
"B  c #33411F",
"V  c #30441F",
"C  c #324520",
"Z  c #334921",
"A  c #354B22",
"S  c #364A22",
"D  c #374D24",
"F  c #394F25",
"G  c #375123",
"H  c #3B5024",
"J  c #3A5025",
"K  c #395224",
"L  c #3B5425",
"P  c #3D5526",
"I  c #3E5627",
"U  c #3E5927",
"Y  c #3F5728",
"T  c #3F5828",
"R  c #414D25",
"E  c #464C26",
"W  c #494E27",
"Q  c #4F4928",
"!  c #4A4F29",
"~  c #564729",
"^  c #574A2B",
"/  c #584F2B",
"(  c #5A4E2C",
")  c #465228",
"_  c #465328",
"`  c #405528",
"'  c #475529",
"]  c #495228",
"[  c #445929",
"{  c #425D2A",
"}  c #4B5C2C",
"|  c #4C5D2D",
" . c #5E5B31",
".. c #62422B",
"X. c #60452C",
"o. c #62442C",
"O. c #6A412D",
"+. c #63492D",
"@. c #674B2F",
"#. c #6C4B30",
"$. c #6F4D31",
"%. c #704430",
"&. c #764631",
"*. c #724D32",
"=. c #7C4B34",
"-. c #794C34",
";. c #7C4C34",
":. c #7F4C35",
">. c #665431",
",. c #725334",
"<. c #745134",
"1. c #735434",
"2. c #45612B",
"3. c #46622C",
"4. c #46632C",
"5. c #47642C",
"6. c #47672D",
"7. c #4A642D",
"8. c #48682E",
"9. c #53612F",
"0. c #54602F",
"q. c #4C6A30",
"w. c #4C6B30",
"e. c #4D6B30",
"r. c #4D6C30",
"t. c #576331",
"y. c #586331",
"u. c #804B35",
"i. c #814E36",
"p. c None",
/* pixels */
"p.p.p.p.p.p.p.p.p.p.p.p.p.p.p.p.p.p.p.p.p.p.p.p.p.p.p.p.p.p.p.p.",
"p.p.p.p.p.p.p.p.p.p.p.p.p.p.p.p.p.p.p.p.p.p.p.p.p.p.p.p.p.p.p.p.",
"p.p.p.p.p.p.p.p.p.p.X X O o O o o o o o p.p.p.p.p.p.p.p.p.p.p.p.",
"p.p.p.p.p.p.p.p.p.p.: 5 5 5 5 5 5 5 < , p.p.p.p.p.p.p.p.p.p.p.p.",
"p.p.p.p.p.p.p.p.X : j c n n m m m n c u :   p.p.p.p.p.p.p.p.p.p.",
"p.p.p.p.p.p.p.p.: t b &.:.i.i.i.i.:.&.b 7 : p.p.p.p.p.p.p.p.p.p.",
"p.p.+ + O o   : u b O.:.:.i.:.i.:.:.:.%.b u : o   O + + p.p.p.p.",
"p.p.+ $ * > 2 t b &.:.:.:.:.:.:.:.:.:.-.#.z y 4 > * $ + p.p.p.p.",
"p.p.O & p C D ] $.=.=.u.u.:.:.:.:.:.:.<. .| P D C i * + p.p.p.p.",
"p.p.+ * a S { 9.>.$.$.$.$.$.$.$.$.*.;.,.t.8.7.{ S a * + p.p.p.p.",
"p.p.p.p.* q S [ ] ] ! ] W ] W ) ] / *.,.y.8.{ S q * p.p.p.p.p.p.",
"p.p.p.p.  & i V K K F F K H K K G W $.$.t.7.' h ;   p.p.p.p.p.p.",
"p.p.p.p.p.p.& 9 N K H K G K F K G E ..@.0.0.( l ,   p.p.p.p.p.p.",
"p.p.p.p.p.p.O & a V H [ U H V N K ) ^ ^ } | +.x < o p.p.p.p.p.p.",
"p.p.p.p.p.p.O + % 0 F 7.8.H w w H 3.) R P ] X.k < o p.p.p.p.p.p.",
"p.p.p.p.p.p.+ $ * a ` 8.8.[ r r ` 7.U F F ~ X.x < o p.p.p.p.p.p.",
"p.p.p.p.p.p.  4 d Y 4.q.q.4.P Y 5.5.U R ~ ..O.k < X p.p.p.p.p.p.",
"p.p.p.p.p.p.. 4 J r.q.q.q.q.q.q.8.7.P E ..M c j : O p.p.p.p.p.p.",
"p.p.p.p.p.p.. 4 J r.e.q.7.q.q.q.8.5.P E ..b 6 : p.p.p.p.p.p.p.p.",
"p.p.p.p.p.p.X 4 J r.r.e.q.q.q.e.e.3.U F z j : X p.p.p.p.p.p.p.p.",
"p.p.p.p.p.p.X 4 J r.r.q.e.e.q.r.r.7.U V e : p.p.p.p.p.p.p.p.p.p.",
"p.p.p.p.p.p.X 4 D 4.T J J J J P 3.3.U d * X p.p.p.p.p.p.p.p.p.p.",
"p.p.p.p.p.p.. 2 C D q 3 4 4 8 q D [ P d * X p.p.p.p.p.p.p.p.p.p.",
"p.p.p.p.p.p.. 2 i a 8 & + . . * i V F f > X p.p.p.p.p.p.p.p.p.p.",
"p.p.p.p.p.p.p.p.* 8 s i &   p.p.* 9 C N 4 + p.p.p.p.p.p.p.p.p.p.",
"p.p.p.p.p.p.p.p.. - a i * + p.p.  * i i % + p.p.p.p.p.p.p.p.p.p.",
"p.p.p.p.p.p.p.p.p.p.- - $ + p.p.p.p.* * $ O p.p.p.p.p.p.p.p.p.p.",
"p.p.p.p.p.p.p.p.p.p.X + X + p.p.p.p.+ + + + p.p.p.p.p.p.p.p.p.p.",
"p.p.p.p.p.p.p.p.p.p.p.p.p.p.p.p.p.p.p.p.p.p.p.p.p.p.p.p.p.p.p.p.",
"p.p.p.p.p.p.p.p.p.p.p.p.p.p.p.p.p.p.p.p.p.p.p.p.p.p.p.p.p.p.p.p.",
"p.p.p.p.p.p.p.p.p.p.p.p.p.p.p.p.p.p.p.p.p.p.p.p.p.p.p.p.p.p.p.p.",
"p.p.p.p.p.p.p.p.p.p.p.p.p.p.p.p.p.p.p.p.p.p.p.p.p.p.p.p.p.p.p.p."
};
