/* XPM */
static char *Agoblin_idle_anim32_f3[] = {
/* columns rows colors chars-per-pixel */
"32 32 69 1 ",
"  c #030307",
". c #060608",
"X c #090A09",
"o c #190F0F",
"O c #0F130D",
"+ c #11160E",
"@ c #19110F",
"# c #13180F",
"$ c #1D1310",
"% c #151C10",
"& c #221612",
"* c #311E18",
"= c #1B2514",
"- c #1F2A16",
"; c #252215",
": c #212D17",
"> c #2C2618",
", c #222E18",
"< c #282818",
"1 c #3F261D",
"2 c #253319",
"3 c #28371A",
"4 c #2D3E1D",
"5 c #40271D",
"6 c #512F23",
"7 c #4C3824",
"8 c #533224",
"9 c #5A3627",
"0 c #5C3928",
"q c #613B2A",
"w c #2E411E",
"e c #31431F",
"r c #334620",
"t c #364C23",
"y c #3B4F24",
"u c #375123",
"i c #3A5225",
"p c #3E5827",
"a c #3E5628",
"s c #434C25",
"d c #494F27",
"f c #544528",
"g c #5F432B",
"h c #574A2B",
"j c #594E2C",
"k c #405927",
"l c #435528",
"z c #4A5028",
"x c #425B29",
"c c #4C5D2C",
"v c #505C2D",
"b c #5E5B31",
"n c #62442C",
"m c #654A2E",
"M c #6B4A2F",
"N c #6D4D31",
"B c #744531",
"V c #734D32",
"C c #7E4C35",
"Z c #665531",
"A c #725234",
"S c #46632C",
"D c #48652D",
"F c #496A2F",
"G c #52612F",
"H c #4D6C30",
"J c #576231",
"K c #804D36",
"L c None",
/* pixels */
"LLLLLLLLLLLLLLLLLLLLLLLLLLLLLLLL",
"LLLLLLLLLLLLLLLLLLLLLLLLLLLLLLLL",
"LLLLLLLLLL          LLLLLLLLLLLL",
"LLLLLLLLLL@$&&&&&&$$LLLLLLLLLLLL",
"LLLLLLLL @580nq0q085o LLLLLLLLLL",
"LLLLLLLL@*0BCKKKKCV0>@LLLLLLLLLL",
"LLLLLL @19BCCKKKKCCB91@ LLLLLLLL",
"LLLLLL#>0BCKKKCKKKCCM7<#LLLLLLLL",
"LLLL %wzMKKKKKKKKCCAbcl4# LLLLLL",
"LLLL#-iJZNNMMNNNMVCAJFHi:+LLLLLL",
"LL +2rixdzzzddzzdjVAJDxir2+ LLLL",
"LL +2wwwtiiiiiiitdMAJDlyr2+ LLLL",
"LL.X+++=eiiiuuuiismmGGj7;OX.LLLL",
"LL...  #4iiyiiiiisfhcvm6$  .LLLL",
"LLLLLL #4iiiuikiiyssazn6$ LLLLLL",
"LLLLLL +,eikkeeeiaiyyfn6$ LLLLLL",
"LLLLLL.XX-iDDi=:iSpsfnq8$ LLLLLL",
"LLLLLL.X+,aHHl::lSpsgq95$ LLLLLL",
"LLLLLL.%4lDHFSlaDDpsg9*@LLLLLLLL",
"LLLLLL %iHHHFHHFFDps75@ LLLLLLLL",
"LLLLLL %iHHHFFHHFSae;@LLLLLLLLLL",
"LLLLLL %ySxiaiilxSa4+ LLLLLLLLLL",
"LLLLLL.%et:%#%#:tla4+ LLLLLLLLLL",
"LLLLLL #23%+X  O2ei4# LLLLLLLLLL",
"LLLLLLLL+=32+ LL+=r4%.LLLLLLLLLL",
"LLLLLLLL +22+ LL +22+ LLLLLLLLLL",
"LLLLLLLLLL++X.LLLL#+X.LLLLLLLLLL",
"LLLLLLLLLL  ..LLLL  ..LLLLLLLLLL",
"LLLLLLLLLLLLLLLLLLLLLLLLLLLLLLLL",
"LLLLLLLLLLLLLLLLLLLLLLLLLLLLLLLL",
"LLLLLLLLLLLLLLLLLLLLLLLLLLLLLLLL",
"LLLLLLLLLLLLLLLLLLLLLLLLLLLLLLLL"
};
