/* XPM */
static char *Agoblin_idle_anim32_f1[] = {
/* columns rows colors chars-per-pixel */
"32 32 140 2 ",
"   c #030206",
".  c #030306",
"X  c #030307",
"o  c #040207",
"O  c #030407",
"+  c #050407",
"@  c #060508",
"#  c #070809",
"$  c #090A0A",
"%  c #090B0A",
"&  c #1A0F0F",
"*  c #0E110C",
"=  c #0F130D",
"-  c #10140D",
";  c #11150E",
":  c #12170F",
">  c #14150E",
",  c #18100F",
"<  c #1A120F",
"1  c #13190F",
"2  c #1A1310",
"3  c #1E1311",
"4  c #1E1411",
"5  c #141A10",
"6  c #161D11",
"7  c #171E11",
"8  c #211612",
"9  c #221713",
"0  c #311E18",
"q  c #192212",
"w  c #1C2614",
"e  c #1D2815",
"r  c #1E2915",
"t  c #252215",
"y  c #202C17",
"u  c #222E17",
"i  c #2C2719",
"p  c #212D18",
"a  c #292818",
"s  c #3F261D",
"d  c #243118",
"f  c #263419",
"g  c #27361A",
"h  c #28371A",
"j  c #2E3F1D",
"k  c #2C3D1E",
"l  c #34391E",
"z  c #40271D",
"x  c #512F23",
"c  c #473221",
"v  c #4C3823",
"b  c #513023",
"n  c #543325",
"m  c #5B3627",
"M  c #5B3727",
"N  c #503F27",
"B  c #5B3A28",
"V  c #5C3828",
"C  c #603B2A",
"Z  c #2F411E",
"A  c #30431F",
"S  c #31441F",
"D  c #324520",
"F  c #334921",
"G  c #364A22",
"H  c #374C23",
"J  c #374D24",
"K  c #3F4824",
"L  c #394F25",
"P  c #375123",
"I  c #395023",
"U  c #395124",
"Y  c #3B5024",
"T  c #395324",
"R  c #3B5226",
"E  c #3E5526",
"W  c #3E5627",
"Q  c #3F5827",
"!  c #3E5628",
"~  c #424F26",
"^  c #464C26",
"/  c #494E27",
"(  c #4A4F29",
")  c #554729",
"_  c #504A28",
"`  c #574A2B",
"'  c #584F2B",
"]  c #5A4E2C",
"[  c #405927",
"{  c #465228",
"}  c #405528",
"|  c #475529",
" . c #495028",
".. c #4B5028",
"X. c #495228",
"o. c #495329",
"O. c #445929",
"+. c #425D2A",
"@. c #425E2A",
"#. c #485F2B",
"$. c #4B5C2C",
"%. c #4C5D2D",
"&. c #505C2D",
"*. c #5E5B31",
"=. c #64432C",
"-. c #60452C",
";. c #62442C",
":. c #6A412D",
">. c #63492D",
",. c #674B2F",
"<. c #6C4B30",
"1. c #6D4D31",
"2. c #704430",
"3. c #764631",
"4. c #734C32",
"5. c #724D32",
"6. c #7E4A35",
"7. c #7C4C34",
"8. c #7E4C35",
"9. c #665431",
"0. c #705133",
"q. c #725334",
"w. c #735434",
"e. c #45602B",
"r. c #47632D",
"t. c #47672D",
"y. c #48662D",
"u. c #49662E",
"i. c #496A2F",
"p. c #50622E",
"a. c #4C6A30",
"s. c #4D6D30",
"d. c #4E6D30",
"f. c #4E6E31",
"g. c #576231",
"h. c #586331",
"j. c #804B35",
"k. c #804C35",
"l. c #814E36",
"z. c None",
/* pixels */
"z.z.z.z.z.z.z.z.z.z.z.z.z.z.z.z.z.z.z.z.z.z.z.z.z.z.z.z.z.z.z.z.",
"z.z.z.z.z.z.z.z.z.z.z.z.z.z.z.z.z.z.z.z.z.z.z.z.z.z.z.z.z.z.z.z.",
"z.z.z.z.z.z.z.z.z.z.z.z.z.z.z.z.z.z.z.z.z.z.z.z.z.z.z.z.z.z.z.z.",
"z.z.z.z.z.z.z.z.z.z.z.z.z.z.z.z.z.z.z.z.z.z.z.z.z.z.z.z.z.z.z.z.",
"z.z.z.z.z.z.z.z.z.z.O O O O O O O O @ O z.z.z.z.z.z.z.z.z.z.z.z.",
"z.z.z.z.z.z.z.z.z.z.2 4 9 9 8 9 9 8 4 2 z.z.z.z.z.z.z.z.z.z.z.z.",
"z.z.z.z.z.z.z.z.o & z n V C C C C V n z 2 X z.z.z.z.z.z.z.z.z.z.",
"z.z.z.z.z.z.z.z.2 a V 3.k.k.k.k.k.8.3.B 0 & z.z.z.z.z.z.z.z.z.z.",
"z.z.@ @ + X X , s M 2.6.k.k.k.k.8.8.6.2.m z & X X + @ @ z.z.z.z.",
"z.z.@ $ ; 1 5 i M 3.6.8.k.k.8.8.8.8.6.7.<.N a 5 1 ; $ @ z.z.z.z.",
"z.z.+ = d D H ( 1.6.k.k.k.k.k.k.8.k.6.w.*.%.E G D d ; @ z.z.z.z.",
"z.z.+ ; d G @.p.9.1.1.1.1.1.0.1.1.5.7.q.g.a.i.@.G d ; + z.z.z.z.",
"z.z.z.z.; e G O.o.......{ ....{ / ' 5.q.h.t.@.F e ; z.z.z.z.z.z.",
"z.z.z.z.X ; d A I U I I I I T I I ..<.5.g.r.| l > X z.z.z.z.z.z.",
"z.z.z.z.z.z.; w S U I U I I U U L ^ ` <.g.p.] c 2 X z.z.z.z.z.z.",
"z.z.z.z.z.z.X = u D E E Q U S S I ( ) ` $.&.>.x 3 O z.z.z.z.z.z.",
"z.z.z.z.z.z.@ $ % e R u.u.L w e I #.{ ~ E  .;.b 3 O z.z.z.z.z.z.",
"z.z.z.z.z.z.@ $ 5 p E f.s.! u p ! u.[ L ~ _ ;.b 3 O z.z.z.z.z.z.",
"z.z.z.z.z.z.@ > j ! u.i.a.r.! ! r.t.E ~ ` =.:.b 3 O z.z.z.z.z.z.",
"z.z.z.z.z.z.X 7 R s.s.a.a.a.s.a.s.r.E ^ v b b z 3 O z.z.z.z.z.z.",
"z.z.z.z.z.z.X 7 L s.s.a.a.a.s.s.i.u.! S t , , , z.z.z.z.z.z.z.z.",
"z.z.z.z.z.z.X 7 L r.} R E U U ! @.@.E j 1 + O + z.z.z.z.z.z.z.z.",
"z.z.z.z.z.z.@ 5 D G p 5 5 6 1 y G [ ! j 1 X z.z.z.z.z.z.z.z.z.z.",
"z.z.z.z.z.z.X : d h q = # o o ; d D L j 1 + z.z.z.z.z.z.z.z.z.z.",
"z.z.z.z.z.z.z.z.1 q g d * X z.z.; w D A 5 @ z.z.z.z.z.z.z.z.z.z.",
"z.z.z.z.z.z.z.z.o ; g d ; + z.z.X ; d d = @ z.z.z.z.z.z.z.z.z.z.",
"z.z.z.z.z.z.z.z.z.z.; ; $ @ z.z.z.z.; ; $ + z.z.z.z.z.z.z.z.z.z.",
"z.z.z.z.z.z.z.z.z.z.@ o @ @ z.z.z.z.o @ @ @ z.z.z.z.z.z.z.z.z.z.",
"z.z.z.z.z.z.z.z.z.z.z.z.z.z.z.z.z.z.z.z.z.z.z.z.z.z.z.z.z.z.z.z.",
"z.z.z.z.z.z.z.z.z.z.z.z.z.z.z.z.z.z.z.z.z.z.z.z.z.z.z.z.z.z.z.z.",
"z.z.z.z.z.z.z.z.z.z.z.z.z.z.z.z.z.z.z.z.z.z.z.z.z.z.z.z.z.z.z.z.",
"z.z.z.z.z.z.z.z.z.z.z.z.z.z.z.z.z.z.z.z.z.z.z.z.z.z.z.z.z.z.z.z."
};
