/* XPM */
static char *Agoblin_idle_anim32_f2[] = {
/* columns rows colors chars-per-pixel */
"32 32 133 2 ",
"   c #030207",
".  c #030307",
"X  c #040307",
"o  c #030407",
"O  c #050507",
"+  c #060508",
"@  c #070809",
"#  c #090A0A",
"$  c #090B0A",
"%  c #1A0F0F",
"&  c #0F130D",
"*  c #10140D",
"=  c #11150E",
"-  c #14150E",
";  c #19110F",
":  c #1A120F",
">  c #131A0F",
",  c #1A1310",
"<  c #1E1311",
"1  c #1E1411",
"2  c #141A10",
"3  c #161D11",
"4  c #171E11",
"5  c #211612",
"6  c #221713",
"7  c #311E18",
"8  c #192112",
"9  c #1C2614",
"0  c #1D2815",
"q  c #1E2915",
"w  c #252215",
"e  c #202C17",
"r  c #2C2719",
"t  c #232F18",
"y  c #292818",
"u  c #3F261D",
"i  c #233118",
"p  c #243118",
"a  c #263419",
"s  c #27351A",
"d  c #28371A",
"f  c #2E3F1D",
"g  c #2C3D1E",
"h  c #34391E",
"j  c #40271D",
"k  c #512F23",
"l  c #473221",
"z  c #4C3823",
"x  c #513024",
"c  c #543325",
"v  c #5B3627",
"b  c #5B3727",
"n  c #503F27",
"m  c #5B3A28",
"M  c #603B2A",
"N  c #30431F",
"B  c #31451F",
"V  c #324520",
"C  c #364A22",
"Z  c #374E23",
"A  c #374D24",
"S  c #394F25",
"D  c #375123",
"F  c #395023",
"G  c #395124",
"H  c #3B5024",
"J  c #395324",
"K  c #3B5226",
"L  c #3B5425",
"P  c #3D5526",
"I  c #3E5927",
"U  c #3E5628",
"Y  c #424D25",
"T  c #424F26",
"R  c #464C26",
"E  c #494E27",
"W  c #4A4F29",
"Q  c #564729",
"!  c #504A28",
"~  c #574A2B",
"^  c #584F2B",
"/  c #5A4E2C",
"(  c #405927",
")  c #465228",
"_  c #405528",
"`  c #475529",
"'  c #495028",
"]  c #4B5028",
"[  c #495329",
"{  c #445929",
"}  c #415F29",
"|  c #425D2A",
" . c #425E2A",
".. c #485F2B",
"X. c #4B5C2C",
"o. c #4C5D2D",
"O. c #505C2D",
"+. c #5E5B31",
"@. c #63432C",
"#. c #64432C",
"$. c #60452C",
"%. c #6A412D",
"&. c #63492D",
"*. c #674B2F",
"=. c #6B4A2F",
"-. c #6C4B30",
";. c #6D4D31",
":. c #704430",
">. c #764631",
",. c #734C32",
"<. c #724D32",
"1. c #7E4A35",
"2. c #794C34",
"3. c #7F4C35",
"4. c #665431",
"5. c #705133",
"6. c #725334",
"7. c #45612B",
"8. c #47632D",
"9. c #47672D",
"0. c #48642D",
"q. c #48662D",
"w. c #49662E",
"e. c #496A2F",
"r. c #50622E",
"t. c #4C6A30",
"y. c #4E6D30",
"u. c #4E6E31",
"i. c #576231",
"p. c #586331",
"a. c #804C36",
"s. c #814E36",
"d. c None",
/* pixels */
"d.d.d.d.d.d.d.d.d.d.d.d.d.d.d.d.d.d.d.d.d.d.d.d.d.d.d.d.d.d.d.d.",
"d.d.d.d.d.d.d.d.d.d.d.d.d.d.d.d.d.d.d.d.d.d.d.d.d.d.d.d.d.d.d.d.",
"d.d.d.d.d.d.d.d.d.d.d.d.d.d.d.d.d.d.d.d.d.d.d.d.d.d.d.d.d.d.d.d.",
"d.d.d.d.d.d.d.d.d.d.d.d.d.d.d.d.d.d.d.d.d.d.d.d.d.d.d.d.d.d.d.d.",
"d.d.d.d.d.d.d.d.d.d.O o O O o o o o o o d.d.d.d.d.d.d.d.d.d.d.d.",
"d.d.d.d.d.d.d.d.d.d., < 5 5 5 5 5 5 1 , d.d.d.d.d.d.d.d.d.d.d.d.",
"d.d.d.d.d.d.d.d.X , j c m m M M M m c u ; o d.d.d.d.d.d.d.d.d.d.",
"d.d.d.d.d.d.d.d., 7 b >.a.a.a.a.a.a.>.b 7 ; d.d.d.d.d.d.d.d.d.d.",
"d.d.+ + . . . ; j m %.1.a.a.a.a.3.3.1.:.v u % X . O + + d.d.d.d.",
"d.d.+ # = > > r m >.1.a.a.a.a.3.3.a.a.2.-.n y 2 > = # + d.d.d.d.",
"d.d.+ & p V S W =.1.a.a.a.a.a.a.3.1.1.5.+.o.U S V p & + d.d.d.d.",
"d.d.O = p C } r.4.<.;.;.;.;.;.;.;.<.3.5.i.t.w.} C p = + d.d.d.d.",
"d.d.d.d.= 0 C { [ ] ] [ W E ' ' [ ^ ,.5.p.9.} V 0 = d.d.d.d.d.d.",
"d.d.d.d.. = p N Z L F F F F L F D E -.5.i.8.` h - . d.d.d.d.d.d.",
"d.d.d.d.d.d.= 9 N G F F F F L G G R #.*.i.r./ l , . d.d.d.d.d.d.",
"d.d.d.d.d.d.. & e V K ( I F B B G ) Q ~ X.O.&.k < o d.d.d.d.d.d.",
"d.d.d.d.d.d.+ $ $ 0 G 8.w.A 0 0 F ..) T G [ $.x < o d.d.d.d.d.d.",
"d.d.d.d.d.d.+ # = t U y.u.U t q _ w.I G R ! #.x < o d.d.d.d.d.d.",
"d.d.d.d.d.d.+ = g _ 9.y.t.8.U U 8.w.L R Q #.%.x < O d.d.d.d.d.d.",
"d.d.d.d.d.d.  4 K u.u.t.t.t.y.t.y.9.I T z x x j ; O d.d.d.d.d.d.",
"d.d.d.d.d.d.  4 K y.u.y.y.y.y.y.e.8._ N w ; ; ; d.d.d.d.d.d.d.d.",
"d.d.d.d.d.d.  4 S 8._ S G G S U } 7.( f = O X O d.d.d.d.d.d.d.d.",
"d.d.d.d.d.d.+ 2 V A e 2 2 4 2 e C | K f = X d.d.d.d.d.d.d.d.d.d.",
"d.d.d.d.d.d.  = p s 8 & + . . = t V S f > X d.d.d.d.d.d.d.d.d.d.",
"d.d.d.d.d.d.d.d.= 8 d p & . d.d.= 9 V f > . d.d.d.d.d.d.d.d.d.d.",
"d.d.d.d.d.d.d.d.. = d p * . d.d.+ = p i & . d.d.d.d.d.d.d.d.d.d.",
"d.d.d.d.d.d.d.d.d.d.= = # + d.d.d.d.= & # + d.d.d.d.d.d.d.d.d.d.",
"d.d.d.d.d.d.d.d.d.d.+ + + + d.d.d.d.. + + + d.d.d.d.d.d.d.d.d.d.",
"d.d.d.d.d.d.d.d.d.d.d.d.d.d.d.d.d.d.d.d.d.d.d.d.d.d.d.d.d.d.d.d.",
"d.d.d.d.d.d.d.d.d.d.d.d.d.d.d.d.d.d.d.d.d.d.d.d.d.d.d.d.d.d.d.d.",
"d.d.d.d.d.d.d.d.d.d.d.d.d.d.d.d.d.d.d.d.d.d.d.d.d.d.d.d.d.d.d.d.",
"d.d.d.d.d.d.d.d.d.d.d.d.d.d.d.d.d.d.d.d.d.d.d.d.d.d.d.d.d.d.d.d."
};
