/* XPM */
static char *goblin_idle_anim32_f1[] = {
/* columns rows colors chars-per-pixel */
"32 32 244 2 ",
"   c #030106",
".  c #000206",
"X  c #020206",
"o  c #030206",
"O  c #020306",
"+  c #030306",
"@  c #030207",
"#  c #030307",
"$  c #040207",
"%  c #040307",
"&  c #020407",
"*  c #030407",
"=  c #040407",
"-  c #050407",
";  c #060508",
":  c #060608",
">  c #070809",
",  c #090A0A",
"<  c #090B0A",
"1  c #1A0F0F",
"2  c #0D100C",
"3  c #0E110C",
"4  c #0F130D",
"5  c #10140D",
"6  c #10150E",
"7  c #11150E",
"8  c #11160E",
"9  c #11170E",
"0  c #12170E",
"q  c #12170F",
"w  c #14150E",
"e  c #18100F",
"r  c #19100F",
"t  c #19110F",
"y  c #1A120F",
"u  c #12180F",
"i  c #13180F",
"p  c #13190F",
"a  c #131A0F",
"s  c #1B1210",
"d  c #1A1310",
"f  c #1D1210",
"g  c #1E1311",
"h  c #1E1411",
"j  c #141A10",
"k  c #151B10",
"l  c #141C10",
"z  c #151C11",
"x  c #161D11",
"c  c #171E11",
"v  c #211612",
"b  c #221713",
"n  c #301E18",
"m  c #311E18",
"M  c #192112",
"N  c #192212",
"B  c #1C2614",
"V  c #1D2714",
"C  c #1D2715",
"Z  c #1D2815",
"A  c #1E2815",
"S  c #1E2915",
"D  c #252215",
"F  c #202C17",
"G  c #212D17",
"H  c #222E17",
"J  c #2C2719",
"K  c #212D18",
"L  c #232F18",
"P  c #292818",
"I  c #3F261D",
"U  c #243118",
"Y  c #243218",
"T  c #253219",
"R  c #253319",
"E  c #263419",
"W  c #27351A",
"Q  c #27361A",
"!  c #28371A",
"~  c #2C3E1D",
"^  c #2D3E1D",
"/  c #2E3F1D",
"(  c #2C3D1E",
")  c #34391E",
"_  c #40261D",
"`  c #40271D",
"'  c #512F23",
"]  c #473221",
"[  c #4C3823",
"{  c #513023",
"}  c #513024",
"|  c #513124",
" . c #523024",
".. c #543325",
"X. c #5A3627",
"o. c #5B3627",
"O. c #5B3727",
"+. c #503F27",
"@. c #5B3A28",
"#. c #5C3828",
"$. c #603A2A",
"%. c #603B2A",
"&. c #2F411E",
"*. c #30431F",
"=. c #33421F",
"-. c #30441F",
";. c #31441F",
":. c #31451F",
">. c #314520",
",. c #324520",
"<. c #324620",
"1. c #334921",
"2. c #354A22",
"3. c #354B22",
"4. c #364A22",
"5. c #374C23",
"6. c #374E23",
"7. c #374D24",
"8. c #364E24",
"9. c #3F4824",
"0. c #394F25",
"q. c #375123",
"w. c #395023",
"e. c #385123",
"r. c #385124",
"t. c #395124",
"y. c #395025",
"u. c #3A5024",
"i. c #3B5024",
"p. c #3A5125",
"a. c #385224",
"s. c #395224",
"d. c #395324",
"f. c #3A5224",
"g. c #3A5225",
"h. c #3B5226",
"j. c #3B5425",
"k. c #3D5526",
"l. c #3D5527",
"z. c #3E5526",
"x. c #3D5627",
"c. c #3E5627",
"v. c #3D5827",
"b. c #3E5827",
"n. c #3F5827",
"m. c #3E5927",
"M. c #3E5628",
"N. c #3F5728",
"B. c #3F5828",
"V. c #424D25",
"C. c #424E25",
"Z. c #424F26",
"A. c #464C26",
"S. c #494E27",
"D. c #4A4F29",
"F. c #554729",
"G. c #564729",
"H. c #504A28",
"J. c #574A2B",
"K. c #584F2B",
"L. c #5A4E2C",
"P. c #405927",
"I. c #465228",
"U. c #465328",
"Y. c #405528",
"T. c #475529",
"R. c #495028",
"E. c #4A5028",
"W. c #4B5028",
"Q. c #495228",
"!. c #495329",
"~. c #445929",
"^. c #415F29",
"/. c #425D2A",
"(. c #425E2A",
"). c #485F2B",
"_. c #4B5C2C",
"`. c #4C5D2D",
"'. c #505C2D",
"]. c #5E5B31",
"[. c #63432C",
"{. c #64432C",
"}. c #60452C",
"|. c #62442C",
" X c #6A412D",
".X c #63492D",
"XX c #674B2F",
"oX c #6B4A2F",
"OX c #6C4B30",
"+X c #6D4D31",
"@X c #6E4D31",
"#X c #6F4D31",
"$X c #714330",
"%X c #704430",
"&X c #764631",
"*X c #734C32",
"=X c #724D32",
"-X c #7D4A34",
";X c #7C4B34",
":X c #7D4B34",
">X c #7E4A35",
",X c #794C34",
"<X c #7C4C34",
"1X c #7E4C35",
"2X c #7F4C35",
"3X c #7F4D35",
"4X c #665431",
"5X c #705133",
"6X c #725334",
"7X c #745134",
"8X c #735434",
"9X c #45602B",
"0X c #45612B",
"qX c #46622C",
"wX c #47632D",
"eX c #47642C",
"rX c #47642D",
"tX c #47672D",
"yX c #48642D",
"uX c #4A642D",
"iX c #48662D",
"pX c #49662E",
"aX c #48682E",
"sX c #496A2F",
"dX c #53612F",
"fX c #50622E",
"gX c #54602F",
"hX c #4C6A30",
"jX c #4C6B30",
"kX c #4D6B30",
"lX c #4D6C30",
"zX c #4D6D30",
"xX c #4E6D30",
"cX c #4E6D31",
"vX c #4E6E31",
"bX c #576231",
"nX c #576331",
"mX c #586331",
"MX c #804B35",
"NX c #804C35",
"BX c #804C36",
"VX c #804D36",
"CX c #814E36",
"ZX c None",
/* pixels */
"ZXZXZXZXZXZXZXZXZXZXZXZXZXZXZXZXZXZXZXZXZXZXZXZXZXZXZXZXZXZXZXZX",
"ZXZXZXZXZXZXZXZXZXZXZXZXZXZXZXZXZXZXZXZXZXZXZXZXZXZXZXZXZXZXZXZX",
"ZXZXZXZXZXZXZXZXZXZXZXZXZXZXZXZXZXZXZXZXZXZXZXZXZXZXZXZXZXZXZXZX",
"ZXZXZXZXZXZXZXZXZXZXZXZXZXZXZXZXZXZXZXZXZXZXZXZXZXZXZXZXZXZXZXZX",
"ZXZXZXZXZXZXZXZXZXZXZXZX* * * * * * * * * * ZXZXZXZXZXZXZXZXZXZX",
"ZXZXZXZXZXZXZXZXZXZXZXZXd h b b v v b b h d ZXZXZXZXZXZXZXZXZXZX",
"ZXZXZXZXZXZXZXZXZXZX# e I ..#.%.%.%.%.#...I e # ZXZXZXZXZXZXZXZX",
"ZXZXZXZXZXZXZXZXZXZX1 m @.&X1XCXNXNXCXNX&XO.J 1 ZXZXZXZXZXZXZXZX",
"ZXZXZXZX; ; - # # 1 I o.%X>X1XNXCXNXNXNX1X%Xo.I e # # - ; ; ZXZX",
"ZXZXZXZX; , 7 p j P +.OX<X>X1X1X1X1XNXNX1X>X&XO.J j p 7 , ; ZXZX",
"ZXZXZXZX; 5 U ,.5.z.`.].6XMXNX1XNXNXNXNXNXNX>X+XD.7.,.U 4 - ZXZX",
"ZXZXZXZX; 7 U 4./.sXsXbX8X<X=X+X+X5X+X+X+X+X+X4XfX(.4.U 7 - ZXZX",
"ZXZXZXZXZXZX7 Z 1./.tXmX6X*XK.S.R.R.Q.R.Q.W.W.!.~.4.Z 7 ZXZXZXZX",
"ZXZXZXZXZXZX# w ) T.wXbX=XOXD.q.w.d.w.w.w.w.t.w.;.U 7 # ZXZXZXZX",
"ZXZXZXZXZXZX# d ] L.fXbXXX}.A.t.t.t.w.w.w.w.t.*.B 7 ZXZXZXZXZXZX",
"ZXZXZXZXZXZX* g ' .X'._.J.F.I.t.;.;.t.P.c.z.,.H 3 # ZXZXZXZXZXZX",
"ZXZXZXZXZXZX* g { |.R.c.Z.I.).w.Z B 0.pXiXh.S < , ; ZXZXZXZXZXZX",
"ZXZXZXZXZXZX* g { |.H.Z.i.n.pXY.H H M.zXvXM.K q , ; ZXZXZXZXZXZX",
"ZXZXZXZXZXZX* g {  X{.F.Z.c.pXwXM.M.wXhXhXiXY.( q ; ZXZXZXZXZXZX",
"ZXZXZXZXZXZX* g ` { { [ 9.n.wXxXhXzXhXhXhXzXvXh.c $ ZXZXZXZXZXZX",
"ZXZXZXZXZXZXZXZXe y y D *.c.pXsXzXzXhXhXhXzXzXt.c $ ZXZXZXZXZXZX",
"ZXZXZXZXZXZXZXZX- * # p / c.9X(.M.t.0.z.h.Y.wX0.x $ ZXZXZXZXZXZX",
"ZXZXZXZXZXZXZXZXZXZX+ p / c.P.4.F j x j j K 5.,.j ; ZXZXZXZXZXZX",
"ZXZXZXZXZXZXZXZXZXZX+ p / 0.,.U 5 # $ > 3 N Q U q $ ZXZXZXZXZXZX",
"ZXZXZXZXZXZXZXZXZXZX; j &.,.B 7 ZXZX$ 3 U ! N q ZXZXZXZXZXZXZXZX",
"ZXZXZXZXZXZXZXZXZXZX; 3 U U 7 o ZXZX; 7 U E 7 o ZXZXZXZXZXZXZXZX",
"ZXZXZXZXZXZXZXZXZXZX; , 7 q ZXZXZXZX; , 7 q ZXZXZXZXZXZXZXZXZXZX",
"ZXZXZXZXZXZXZXZXZXZX; ; ; $ ZXZXZXZX; ; $ ; ZXZXZXZXZXZXZXZXZXZX",
"ZXZXZXZXZXZXZXZXZXZXZXZXZXZXZXZXZXZXZXZXZXZXZXZXZXZXZXZXZXZXZXZX",
"ZXZXZXZXZXZXZXZXZXZXZXZXZXZXZXZXZXZXZXZXZXZXZXZXZXZXZXZXZXZXZXZX",
"ZXZXZXZXZXZXZXZXZXZXZXZXZXZXZXZXZXZXZXZXZXZXZXZXZXZXZXZXZXZXZXZX",
"ZXZXZXZXZXZXZXZXZXZXZXZXZXZXZXZXZXZXZXZXZXZXZXZXZXZXZXZXZXZXZXZX"
};
