/* XPM */
static char *goblin_idle_anim32_f2[] = {
/* columns rows colors chars-per-pixel */
"32 32 247 2 ",
"   c #030106",
".  c #000206",
"X  c #020206",
"o  c #030206",
"O  c #020306",
"+  c #030306",
"@  c #030207",
"#  c #030307",
"$  c #040207",
"%  c #040307",
"&  c #020407",
"*  c #030407",
"=  c #040407",
"-  c #050407",
";  c #050507",
":  c #060508",
">  c #060608",
",  c #070809",
"<  c #090A09",
"1  c #090A0A",
"2  c #090B0A",
"3  c #1A0F0F",
"4  c #0D100C",
"5  c #0E110C",
"6  c #0F130C",
"7  c #0F130D",
"8  c #10140D",
"9  c #10150E",
"0  c #11150E",
"q  c #11160E",
"w  c #11170E",
"e  c #12170E",
"r  c #12170F",
"t  c #14150E",
"y  c #18100F",
"u  c #19100F",
"i  c #19110F",
"p  c #1A120F",
"a  c #12180E",
"s  c #12180F",
"d  c #131A0F",
"f  c #1B1210",
"g  c #1A1310",
"h  c #1D1210",
"j  c #1E1311",
"k  c #1E1411",
"l  c #141A10",
"z  c #151B10",
"x  c #141C10",
"c  c #151C11",
"v  c #161D11",
"b  c #171E11",
"n  c #211612",
"m  c #221713",
"M  c #301E18",
"N  c #311E18",
"B  c #192112",
"V  c #192212",
"C  c #1C2614",
"Z  c #1D2714",
"A  c #1D2715",
"S  c #1D2815",
"D  c #1E2815",
"F  c #1E2915",
"G  c #252215",
"H  c #202C17",
"J  c #212D17",
"K  c #222E17",
"L  c #2C2719",
"P  c #212D18",
"I  c #232F18",
"U  c #292818",
"Y  c #3F261D",
"T  c #233118",
"R  c #243118",
"E  c #243218",
"W  c #253219",
"Q  c #253319",
"!  c #263419",
"~  c #27351A",
"^  c #27361A",
"/  c #28371A",
"(  c #2C3E1D",
")  c #2D3E1D",
"_  c #2E3F1D",
"`  c #2C3D1E",
"'  c #34391E",
"]  c #40261D",
"[  c #40271D",
"{  c #512F23",
"}  c #473221",
"|  c #4C3823",
" . c #513023",
".. c #513024",
"X. c #513124",
"o. c #523024",
"O. c #543325",
"+. c #5A3627",
"@. c #5B3627",
"#. c #5B3727",
"$. c #503F27",
"%. c #5B3A28",
"&. c #5C3828",
"*. c #603A2A",
"=. c #603B2A",
"-. c #2E401E",
";. c #30431F",
":. c #33421F",
">. c #30441F",
",. c #31441F",
"<. c #31451F",
"1. c #314520",
"2. c #324520",
"3. c #324620",
"4. c #334921",
"5. c #354A22",
"6. c #354B22",
"7. c #364A22",
"8. c #374C23",
"9. c #374E23",
"0. c #374D24",
"q. c #364E24",
"w. c #3F4824",
"e. c #394F25",
"r. c #375123",
"t. c #395023",
"y. c #385123",
"u. c #385124",
"i. c #395124",
"p. c #395025",
"a. c #3A5024",
"s. c #3B5024",
"d. c #3A5125",
"f. c #385224",
"g. c #395224",
"h. c #395324",
"j. c #3A5224",
"k. c #3A5225",
"l. c #3B5226",
"z. c #3B5425",
"x. c #3D5526",
"c. c #3D5527",
"v. c #3E5526",
"b. c #3D5627",
"n. c #3E5627",
"m. c #3D5827",
"M. c #3E5827",
"N. c #3F5827",
"B. c #3E5927",
"V. c #3E5628",
"C. c #3F5728",
"Z. c #3F5828",
"A. c #424D25",
"S. c #424E25",
"D. c #424F26",
"F. c #464C26",
"G. c #494E27",
"H. c #4A4F29",
"J. c #554729",
"K. c #564729",
"L. c #504A28",
"P. c #574A2B",
"I. c #584F2B",
"U. c #5A4E2C",
"Y. c #405927",
"T. c #465228",
"R. c #465328",
"E. c #405528",
"W. c #475529",
"Q. c #495028",
"!. c #4A5028",
"~. c #4B5028",
"^. c #495228",
"/. c #495329",
"(. c #445929",
"). c #415F29",
"_. c #425D2A",
"`. c #425E2A",
"'. c #485F2B",
"]. c #4B5C2C",
"[. c #4C5D2D",
"{. c #505C2D",
"}. c #5E5B31",
"|. c #63432C",
" X c #64432C",
".X c #60452C",
"XX c #62442C",
"oX c #6A412D",
"OX c #63492D",
"+X c #674B2F",
"@X c #6B4A2F",
"#X c #6C4B30",
"$X c #6D4D31",
"%X c #6E4D31",
"&X c #6F4D31",
"*X c #714330",
"=X c #704430",
"-X c #764631",
";X c #734C32",
":X c #724D32",
">X c #7D4A34",
",X c #7C4B34",
"<X c #7D4B34",
"1X c #7E4A35",
"2X c #794C34",
"3X c #7C4C34",
"4X c #7E4C35",
"5X c #7F4C35",
"6X c #7F4D35",
"7X c #665431",
"8X c #705133",
"9X c #725334",
"0X c #745134",
"qX c #735434",
"wX c #45602B",
"eX c #45612B",
"rX c #46622C",
"tX c #47632D",
"yX c #47642C",
"uX c #47642D",
"iX c #47672D",
"pX c #48642D",
"aX c #4A642D",
"sX c #48662D",
"dX c #49662E",
"fX c #48682E",
"gX c #496A2F",
"hX c #53612F",
"jX c #50622E",
"kX c #54602F",
"lX c #4C6A30",
"zX c #4C6B30",
"xX c #4D6B30",
"cX c #4D6C30",
"vX c #4D6D30",
"bX c #4E6D30",
"nX c #4E6D31",
"mX c #4E6E31",
"MX c #576231",
"NX c #576331",
"BX c #586331",
"VX c #804B35",
"CX c #804C35",
"ZX c #804C36",
"AX c #804D36",
"SX c #814E36",
"DX c None",
/* pixels */
"DXDXDXDXDXDXDXDXDXDXDXDXDXDXDXDXDXDXDXDXDXDXDXDXDXDXDXDXDXDXDXDX",
"DXDXDXDXDXDXDXDXDXDXDXDXDXDXDXDXDXDXDXDXDXDXDXDXDXDXDXDXDXDXDXDX",
"DXDXDXDXDXDXDXDXDXDXDXDXDXDXDXDXDXDXDXDXDXDXDXDXDXDXDXDXDXDXDXDX",
"DXDXDXDXDXDXDXDXDXDXDXDXDXDXDXDXDXDXDXDXDXDXDXDXDXDXDXDXDXDXDXDX",
"DXDXDXDXDXDXDXDXDXDXDXDX* * * * * * ; * * * DXDXDXDXDXDXDXDXDXDX",
"DXDXDXDXDXDXDXDXDXDXDXDXg k n m n n m n k g DXDXDXDXDXDXDXDXDXDX",
"DXDXDXDXDXDXDXDXDXDX# i Y O.%.=.=.=.=.%.O.Y i # DXDXDXDXDXDXDXDX",
"DXDXDXDXDXDXDXDXDXDXi N #.-X5XZXZXZXSXZX-X@.N i DXDXDXDXDXDXDXDX",
"DXDXDXDX: : ; # # 3 Y @.=X1X5X5XZXZXZXZX5XoX%.Y i # # % : : DXDX",
"DXDXDXDX: 1 0 d l U $.#X2XZX5X5X5XZXZXZXZX1X-X%.L l d 8 1 : DXDX",
"DXDXDXDX: 7 R 2.e.V.[.}.9X1X1X5XZXZXZXZXZXZX1X@XH.e.2.R 7 : DXDX",
"DXDXDXDX: 0 R 7._.dXgXMX9X5X:X$X$X$X$X$X$X$X:X7XjX).7.R 0 ; DXDX",
"DXDXDXDXDXDX0 S 2.).iXBX9X;XI.Q.Q.Q.Q.~.Q.~.~./.(.7.S 0 DXDXDXDX",
"DXDXDXDXDXDX# t ' W.tXMX8X@XG.r.t.h.t.t.t.t.z.9.;.R 0 # DXDXDXDX",
"DXDXDXDXDXDX# g } U.jXMX+X|.F.i.i.z.t.t.t.t.i.;.C 0 DXDXDXDXDXDX",
"DXDXDXDXDXDX* j { OX{.].P.K.T.i.<.<.i.B.Y.l.2.H 7 # DXDXDXDXDXDX",
"DXDXDXDXDXDX* j ...XQ.l.D.T.'.t.S S i.dXsXl.F 2 2 : DXDXDXDXDXDX",
"DXDXDXDXDXDX* j ..|.L.A.s.B.dXE.H H V.bXbXV.I 0 2 : DXDXDXDXDXDX",
"DXDXDXDXDXDX* j ..oX XK.D.x.dXtXV.V.tXlXlXsXE.` 0 : DXDXDXDXDXDX",
"DXDXDXDXDXDX; g [ ..{ | A.B.tXbXlXbXlXlXlXbXmXl.b @ DXDXDXDXDXDX",
"DXDXDXDXDXDXDXDXp p p G ;.E.pXgXbXbXlXlXbXmXlXl.b @ DXDXDXDXDXDX",
"DXDXDXDXDXDXDXDX; # ; 0 _ Y.eX`.V.i.i.l.i.E.tXe.b @ DXDXDXDXDXDX",
"DXDXDXDXDXDXDXDXDXDX% 0 _ l._.7.H l v l l H 0.2.l : DXDXDXDXDXDX",
"DXDXDXDXDXDXDXDXDXDX% d _ e.;.R 8 # @ , 7 B ~ R 0 @ DXDXDXDXDXDX",
"DXDXDXDXDXDXDXDXDXDX@ d _ 2.C 0 DXDX@ 7 R / B 0 DXDXDXDXDXDXDXDX",
"DXDXDXDXDXDXDXDXDXDX@ 7 T ! 0 # DXDX@ 0 R / 0 @ DXDXDXDXDXDXDXDX",
"DXDXDXDXDXDXDXDXDXDX: 2 7 0 DXDXDXDX: 2 0 0 DXDXDXDXDXDXDXDXDXDX",
"DXDXDXDXDXDXDXDXDXDX: : : @ DXDXDXDX: : : : DXDXDXDXDXDXDXDXDXDX",
"DXDXDXDXDXDXDXDXDXDXDXDXDXDXDXDXDXDXDXDXDXDXDXDXDXDXDXDXDXDXDXDX",
"DXDXDXDXDXDXDXDXDXDXDXDXDXDXDXDXDXDXDXDXDXDXDXDXDXDXDXDXDXDXDXDX",
"DXDXDXDXDXDXDXDXDXDXDXDXDXDXDXDXDXDXDXDXDXDXDXDXDXDXDXDXDXDXDXDX",
"DXDXDXDXDXDXDXDXDXDXDXDXDXDXDXDXDXDXDXDXDXDXDXDXDXDXDXDXDXDXDXDX"
};
