/* XPM */
static char *goblin_idle_anim32_f3[] = {
/* columns rows colors chars-per-pixel */
"32 32 76 1 ",
"  c #030307",
". c #060608",
"X c #070809",
"o c #090A09",
"O c #190F0F",
"+ c #0F130D",
"@ c #11160E",
"# c #19110F",
"$ c #13180F",
"% c #1D1310",
"& c #151C10",
"* c #221612",
"= c #301D17",
"- c #311E18",
"; c #1B2514",
": c #1F2A16",
"> c #252215",
", c #212D17",
"< c #2C2618",
"1 c #222E18",
"2 c #282818",
"3 c #3F261D",
"4 c #253319",
"5 c #28371A",
"6 c #2D3E1D",
"7 c #40271D",
"8 c #512F23",
"9 c #4C3824",
"0 c #533224",
"q c #5A3627",
"w c #503F26",
"e c #5C3928",
"r c #613B2A",
"t c #2E411E",
"y c #31431F",
"u c #334620",
"i c #364C23",
"p c #3B4F24",
"a c #375123",
"s c #3A5225",
"d c #3E5827",
"f c #3E5628",
"g c #3F5828",
"h c #434C25",
"j c #494F27",
"k c #4F4928",
"l c #544528",
"z c #5F432B",
"x c #574A2B",
"c c #594E2C",
"v c #405927",
"b c #435528",
"n c #4A5028",
"m c #425B29",
"M c #4C5D2C",
"N c #505C2D",
"B c #5E5B31",
"V c #62442C",
"C c #6A412D",
"Z c #654A2E",
"A c #6B4A2F",
"S c #6D4D31",
"D c #744531",
"F c #734D32",
"G c #7E4C35",
"H c #665531",
"J c #725234",
"K c #46632C",
"L c #48652D",
"P c #496A2F",
"I c #52612F",
"U c #4D6C30",
"Y c #576231",
"T c #586331",
"R c #804D36",
"E c None",
/* pixels */
"EEEEEEEEEEEEEEEEEEEEEEEEEEEEEEEE",
"EEEEEEEEEEEEEEEEEEEEEEEEEEEEEEEE",
"EEEEEEEEEEEE          EEEEEEEEEE",
"EEEEEEEEEEEE%%******%#EEEEEEEEEE",
"EEEEEEEEEE O70ererVe07# EEEEEEEE",
"EEEEEEEEEE#<eFGRRRRGDe-#EEEEEEEE",
"EEEEEEEE #3qDGGRRRRGGDq3# EEEEEE",
"EEEEEEEE$29AGGRRRGRRRGDe<$EEEEEE",
"EEEEEE $6bMBJGGRRRRRRRRAnt& EEEE",
"EEEEEE@,sUPYJGFASSSAASSHYs:$EEEE",
"EEEE @4usmLYJFcjnnjjnnnjmsu4@ EE",
"EEEE @4upbLYJAjisssssssittt4@ EE",
"EEEE.o+>9cIIZZhssaaasssy;@@@o.EE",
"EEEE.  %8ZNMxlhssssspss6$  ...EE",
"EEEEEE %8Vnfhhpssvsasss6$ EEEEEE",
"EEEEEE %8Vlppsfsyyyvvsy1@ EEEEEE",
"EEEEEE %0rVlhdKs,;sLLs:oo.EEEEEE",
"EEEEEE %7qrzhdKb,,bUUf1@o.EEEEEE",
"EEEEEEEE#-qzhdLLfbKPULb6&.EEEEEE",
"EEEEEEEE #79hdLPPUUPUUUs& EEEEEE",
"EEEEEEEEEE#>yfKPUUPPUUUs& EEEEEE",
"EEEEEEEEEE @6fKmbssfsmKp& EEEEEE",
"EEEEEEEEEE @6fbi,$&$&,iy&.EEEEEE",
"EEEEEEEEEE $6sy4+  o@&54$ EEEEEE",
"EEEEEEEEEE.&6u;@EE @45;@EEEEEEEE",
"EEEEEEEEEE @44@ EE @44@ EEEEEEEE",
"EEEEEEEEEE.o@$EEEE.o@@EEEEEEEEEE",
"EEEEEEEEEE..  EEEE..  EEEEEEEEEE",
"EEEEEEEEEEEEEEEEEEEEEEEEEEEEEEEE",
"EEEEEEEEEEEEEEEEEEEEEEEEEEEEEEEE",
"EEEEEEEEEEEEEEEEEEEEEEEEEEEEEEEE",
"EEEEEEEEEEEEEEEEEEEEEEEEEEEEEEEE"
};
