/* XPM */
static char *goblin_idle_anim32_f0[] = {
/* columns rows colors chars-per-pixel */
"32 32 256 2 ",
"   c #030106",
".  c #000206",
"X  c #020206",
"o  c #030206",
"O  c #030306",
"+  c #030207",
"@  c #030307",
"#  c #040207",
"$  c #040307",
"%  c #020407",
"&  c #030407",
"*  c #040407",
"=  c #050407",
"-  c #060508",
";  c #060608",
":  c #070809",
">  c #090A0A",
",  c #090B0A",
"<  c #1A0F0F",
"1  c #0D100C",
"2  c #0E110C",
"3  c #0F130D",
"4  c #10140D",
"5  c #10150E",
"6  c #11150E",
"7  c #10160E",
"8  c #11160E",
"9  c #11170E",
"0  c #12170E",
"q  c #12170F",
"w  c #14150E",
"e  c #18100F",
"r  c #19100F",
"t  c #19110F",
"y  c #1A100F",
"u  c #1B100F",
"i  c #1A120F",
"p  c #12180F",
"a  c #13180F",
"s  c #13190F",
"d  c #131A0F",
"f  c #1B1210",
"g  c #1A1310",
"h  c #1E1311",
"j  c #1E1411",
"k  c #141A10",
"l  c #151B10",
"z  c #141C10",
"x  c #151C11",
"c  c #161D11",
"v  c #171E11",
"b  c #211612",
"n  c #221713",
"m  c #301D17",
"M  c #301E18",
"N  c #311E18",
"B  c #192112",
"V  c #192212",
"C  c #1C2614",
"Z  c #1D2714",
"A  c #1D2715",
"S  c #1D2815",
"D  c #1E2815",
"F  c #1E2915",
"G  c #242215",
"H  c #202C17",
"J  c #212D17",
"K  c #222E17",
"L  c #2C2719",
"P  c #212D18",
"I  c #232F18",
"U  c #292818",
"Y  c #3F261D",
"T  c #243118",
"R  c #243218",
"E  c #253219",
"W  c #253319",
"Q  c #263419",
"!  c #27351A",
"~  c #27361A",
"^  c #28371A",
"/  c #2C3D1D",
"(  c #2C3E1D",
")  c #2E3F1D",
"_  c #2C3D1E",
"`  c #34391E",
"'  c #40261D",
"]  c #40271D",
"[  c #41271D",
"{  c #512F23",
"}  c #473221",
"|  c #4C3924",
" . c #513023",
".. c #513124",
"X. c #543325",
"o. c #583426",
"O. c #593426",
"+. c #5A3627",
"@. c #5B3627",
"#. c #5B3727",
"$. c #503F27",
"%. c #5B3A28",
"&. c #5C3828",
"*. c #603A2A",
"=. c #603B2A",
"-. c #663B2B",
";. c #2F411E",
":. c #33411F",
">. c #30431F",
",. c #30441F",
"<. c #31441F",
"1. c #31451F",
"2. c #314520",
"3. c #324520",
"4. c #324620",
"5. c #334921",
"6. c #354A22",
"7. c #354B22",
"8. c #364A22",
"9. c #374C23",
"0. c #374E23",
"q. c #374D24",
"w. c #364E24",
"e. c #394F25",
"r. c #375123",
"t. c #395023",
"y. c #385123",
"u. c #385124",
"i. c #395124",
"p. c #395025",
"a. c #3A5024",
"s. c #3B5024",
"d. c #3A5025",
"f. c #3A5125",
"g. c #385224",
"h. c #395224",
"j. c #395324",
"k. c #3A5224",
"l. c #3A5225",
"z. c #3A5126",
"x. c #3B5226",
"c. c #3B5425",
"v. c #3D5526",
"b. c #3D5527",
"n. c #3E5526",
"m. c #3D5726",
"M. c #3D5627",
"N. c #3E5627",
"B. c #3D5827",
"V. c #3E5827",
"C. c #3F5827",
"Z. c #3E5927",
"A. c #3E5628",
"S. c #3F5728",
"D. c #3F5828",
"F. c #404924",
"G. c #414D25",
"H. c #424F26",
"J. c #464C26",
"K. c #474D26",
"L. c #494E27",
"P. c #4F4928",
"I. c #4A4F29",
"U. c #544628",
"Y. c #564729",
"T. c #5F432B",
"R. c #574A2B",
"E. c #584F2B",
"W. c #5A4E2C",
"Q. c #405927",
"!. c #465228",
"~. c #465328",
"^. c #405528",
"/. c #475529",
"(. c #495028",
"). c #4A5028",
"_. c #4B5028",
"`. c #495228",
"'. c #495329",
"]. c #445929",
"[. c #415F29",
"{. c #425D2A",
"}. c #425E2A",
"|. c #485F2B",
" X c #4B5C2C",
".X c #4C5D2D",
"XX c #505C2D",
"oX c #5E5B31",
"OX c #62422B",
"+X c #61442B",
"@X c #63432C",
"#X c #60452C",
"$X c #62442C",
"%X c #6A412D",
"&X c #63492D",
"*X c #674B2F",
"=X c #6B4A2F",
"-X c #6C4B30",
";X c #6D4D31",
":X c #6E4D31",
">X c #6F4D31",
",X c #714330",
"<X c #704430",
"1X c #764631",
"2X c #734C32",
"3X c #724D32",
"4X c #7D4A34",
"5X c #7C4B34",
"6X c #7D4B34",
"7X c #7E4A35",
"8X c #794C34",
"9X c #7C4C34",
"0X c #7E4C35",
"qX c #7F4C35",
"wX c #7F4D35",
"eX c #665431",
"rX c #705133",
"tX c #725334",
"yX c #745134",
"uX c #735434",
"iX c #45602B",
"pX c #45612B",
"aX c #46622C",
"sX c #46632C",
"dX c #47632D",
"fX c #47642C",
"gX c #47642D",
"hX c #47672D",
"jX c #48642D",
"kX c #48652D",
"lX c #4A642D",
"zX c #48662D",
"xX c #49662E",
"cX c #48682E",
"vX c #4B692F",
"bX c #496A2F",
"nX c #4B6A2F",
"mX c #4C6A2F",
"MX c #53612F",
"NX c #50622E",
"BX c #54602F",
"VX c #4C6A30",
"CX c #4C6B30",
"ZX c #4D6B30",
"AX c #4D6C30",
"SX c #4D6D30",
"DX c #4E6D31",
"FX c #576231",
"GX c #576331",
"HX c #586331",
"JX c #804B35",
"KX c #804C35",
"LX c #804C36",
"PX c #804D36",
"IX c #814E36",
"UX c None",
/* pixels */
"UXUXUXUXUXUXUXUXUXUXUXUXUXUXUXUXUXUXUXUXUXUXUXUXUXUXUXUXUXUXUXUX",
"UXUXUXUXUXUXUXUXUXUXUXUXUXUXUXUXUXUXUXUXUXUXUXUXUXUXUXUXUXUXUXUX",
"UXUXUXUXUXUXUXUXUXUXUXUX& & & & & = & & = & UXUXUXUXUXUXUXUXUXUX",
"UXUXUXUXUXUXUXUXUXUXUXUXg h b b b b b b j e UXUXUXUXUXUXUXUXUXUX",
"UXUXUXUXUXUXUXUXUXUXO e Y X.&.=.=.=.&.&.X.Y e & UXUXUXUXUXUXUXUX",
"UXUXUXUXUXUXUXUXUXUXe M +.1XqXIXIXIXIXqX1X&.M e UXUXUXUXUXUXUXUX",
"UXUXUXUX- - = O & e Y +.<XqXqXqXIXqXIXqXqX%X&.Y e O & = - - UXUX",
"UXUXUXUX- > 4 d v U | -X8XqXqXqXqXqXqXqXqX5X1X&.L k d 4 , - UXUX",
"UXUXUXUX- 4 T 3.q.^..XoXyXqXJXqXqXqXqXqXJX5X5X>XI.q.3.R 3 = UXUX",
"UXUXUXUX- 4 Q 8.{.cXcXGXtX9X3X>X>X>X>X>X>X>X>XeXMX{.7.Q 4 - UXUX",
"UXUXUXUXUXUX4 D 5.{.hXHXuX3XE.`.!.L.`.I.`.I.`.`.].8.D 4 UXUXUXUX",
"UXUXUXUXUXUXO w ` /.lXHX>X-XL.r.h.h.s.r.s.s.r.r.,.T 3 O UXUXUXUX",
"UXUXUXUXUXUXO g } W.MXBX*X$XJ.r.h.s.s.r.r.s.c.;.C 3 UXUXUXUXUXUX",
"UXUXUXUXUXUX& h  .&X.X XR.Y.~.s.;.,.s.Z.D.s.3.R 2 = UXUXUXUXUXUX",
"UXUXUXUXUXUX& h { #X`.v.G.~.aXs.A A s.cXlXs.D 2 : = UXUXUXUXUXUX",
"UXUXUXUXUXUX& h  .$XP.G.s.Z.lXS.J J S.AXAXS.R 4 > - UXUXUXUXUXUX",
"UXUXUXUXUXUX& j { %XOXY.G.D.sXsXS.v.sXVXVXsXS._ z $ UXUXUXUXUXUX",
"UXUXUXUXUXUX= g [ X.-.OXJ.v.sXVXVXVXVXVXVXVXAXd.v $ UXUXUXUXUXUX",
"UXUXUXUXUXUXUXUXe m O.OXJ.v.sXVXVXVXVXlXVXZXAXd.v @ UXUXUXUXUXUX",
"UXUXUXUXUXUXUXUXO e [ | e.Z.sXVXCXVXVXVXZXAXAXd.v $ UXUXUXUXUXUX",
"UXUXUXUXUXUXUXUXUXUXe G :.Z.fXZXCXCXVXCXCXAXAXd.v $ UXUXUXUXUXUX",
"UXUXUXUXUXUXUXUXUXUX= 4 / Z.pXpXN.s.d.s.d.S.sXq.v $ UXUXUXUXUXUX",
"UXUXUXUXUXUXUXUXUXUXO 4 / v.].q.F v v v z F q.3.k $ UXUXUXUXUXUX",
"UXUXUXUXUXUXUXUXUXUX= d ) e.3.T 7 @ @ - 2 B ^ T q $ UXUXUXUXUXUX",
"UXUXUXUXUXUXUXUXUXUX- k ;.3.C 4 UXUX$ 2 T ^ B 4 UXUXUXUXUXUXUXUX",
"UXUXUXUXUXUXUXUXUXUX- 2 T T 4 @ UXUX- 4 T Q q @ UXUXUXUXUXUXUXUX",
"UXUXUXUXUXUXUXUXUXUX- > 4 4 UXUXUXUX- > q q UXUXUXUXUXUXUXUXUXUX",
"UXUXUXUXUXUXUXUXUXUX- - - - UXUXUXUX- - - $ UXUXUXUXUXUXUXUXUXUX",
"UXUXUXUXUXUXUXUXUXUXUXUXUXUXUXUXUXUXUXUXUXUXUXUXUXUXUXUXUXUXUXUX",
"UXUXUXUXUXUXUXUXUXUXUXUXUXUXUXUXUXUXUXUXUXUXUXUXUXUXUXUXUXUXUXUX",
"UXUXUXUXUXUXUXUXUXUXUXUXUXUXUXUXUXUXUXUXUXUXUXUXUXUXUXUXUXUXUXUX",
"UXUXUXUXUXUXUXUXUXUXUXUXUXUXUXUXUXUXUXUXUXUXUXUXUXUXUXUXUXUXUXUX"
};
