/* XPM */
static char *Aknight32_3[] = {
/* columns rows colors chars-per-pixel */
"32 32 122 2 ",
"   c #020204",
".  c #0C0406",
"X  c #060608",
"o  c #0E0709",
"O  c #0C0A0C",
"+  c #12090A",
"@  c #141416",
"#  c #1B1A1E",
"$  c #230C0D",
"%  c #2C0D0F",
"&  c #2C0F10",
"*  c #2B1315",
"=  c #241B1E",
"-  c #331D1F",
";  c #1E1E21",
":  c #231E21",
">  c #1F2125",
",  c #222226",
"<  c #252529",
"1  c #262A2E",
"2  c #292B2E",
"3  c #3B2224",
"4  c #2A2D31",
"5  c #302F31",
"6  c #2F3032",
"7  c #333336",
"8  c #353338",
"9  c #3A3A3D",
"0  c #4E1E1F",
"q  c #641C1D",
"w  c #6C1F20",
"e  c #6E2425",
"r  c #7A2424",
"t  c #7B3234",
"y  c #634739",
"u  c #674A3C",
"i  c #3C3C40",
"p  c #3F4348",
"a  c #424243",
"s  c #4C484E",
"d  c #4E4C52",
"f  c #534D54",
"g  c #565258",
"h  c #58545B",
"j  c #6A4F55",
"k  c #6C5157",
"l  c #6E545A",
"z  c #5F6970",
"x  c #636269",
"c  c #68656C",
"v  c #6E6D6E",
"b  c #6C6B72",
"n  c #706C75",
"m  c #6E7078",
"M  c #717179",
"N  c #822626",
"B  c #8B2727",
"V  c #803638",
"C  c #8C393B",
"Z  c #AD3232",
"A  c #B23433",
"S  c #B35B2D",
"D  c #954E4F",
"F  c #A34144",
"G  c #AE4F43",
"H  c #AE4B4C",
"J  c #A35559",
"K  c #BC5B5B",
"L  c #BF6253",
"P  c #925E63",
"I  c #8F6B72",
"U  c #916C73",
"Y  c #947173",
"T  c #9D7B73",
"R  c #90737B",
"E  c #C86D41",
"W  c #C36455",
"Q  c #C46565",
"!  c #737B83",
"~  c #7E7B84",
"^  c #827C85",
"/  c #887B84",
"(  c #76848C",
")  c #79858D",
"_  c #89858E",
"`  c #8B8B95",
"'  c #8B939C",
"]  c #919293",
"[  c #949698",
"{  c #969999",
"}  c #A88489",
"|  c #9398A1",
" . c #96A4AE",
".. c #99A7B1",
"X. c #9AABB5",
"o. c #9CAEB9",
"O. c #9EB1BB",
"+. c #BAA3A4",
"@. c #A8AAB2",
"#. c #A1B3BD",
"$. c #B2B6B8",
"%. c #C3A5A0",
"&. c #C8A9A5",
"*. c #D7B6B7",
"=. c #ADBCC4",
"-. c #B2BDC5",
";. c #B6C4CC",
":. c #B9C7CF",
">. c #BBC9D1",
",. c #C3C4C4",
"<. c #C5C8C8",
"1. c #D2D3D3",
"2. c #EFD0D0",
"3. c #F4D5D5",
"4. c #D4DCE0",
"5. c #E5E6E8",
"6. c #E8EDEF",
"7. c #EAEEF0",
"8. c #EDF1F3",
"9. c #F2F3F4",
"0. c #F2F7F9",
"q. c None",
/* pixels */
"q.q.q.q.q.q.q.q.q.q.q.q.q.q.q.q.X X q.q.q.q.q.q.q.q.q.q.q.q.q.q.",
"q.q.q.q.q.q.q.q.q.q.q.q.q.q.q.q.% % q.q.q.q.q.q.q.q.q.q.q.q.q.q.",
"q.q.q.q.q.q.q.q.q.q.q.q.q.q.X & w e & X X X q.q.q.q.q.q.q.q.q.q.",
"q.q.q.q.q.q.q.q.q.q.q.q.q.q.  * V C 0 + o X q.q.q.q.q.q.q.q.q.q.",
"q.q.q.q.q.q.q.q.              : l P C w $ X q.q.q.q.q.q.q.q.q.q.",
"q.q.q.q.q.q.q.q.1 1 2 2 2 4 1 p b R J t *   q.q.q.q.q.q.q.q.q.q.",
"q.q.q.q.q.q.  1 z ) ( ( ( ( ( ) ^ / R k :   q.q.q.q.q.q.q.q.q.q.",
"q.q.q.q.q.q.  4 ( =.O.O.O.#.O...' ` ` m i ; q.q.q.q.q.q.q.q.q.q.",
"q.q.q.q.q.q.  4 ( #.#.o.O.O.O.X... . .' M f :   q.q.q.q.q.q.q.q.",
"q.q.q.q.q.q.  2 ( o.o.X.X.X.X.X.X.X.o.X.| b <   q.q.q.q.q.q.q.q.",
"q.q.q.q.q.q.  4 ( o.X.X.X.X.X.X.X.X.X.X.X.! 2   q.q.q.q.q.q.q.q.",
"q.q.q.q.q.q.  6 ' >.:.;.;.;.;.;.;.=.#.o.O.( 4   q.q.q.q.q.q.q.q.",
"q.q.q.q.q.q.  9 $.0.0.8.8.8.7.8.7.4.=.o.O.( 4   q.q.q.q.q.q.q.q.",
"q.q.q.q.q.q.  7 ] <.<.<.,.,.,.1.9.6.;.X.X.! 1   q.q.q.q.q.q.q.q.",
"q.q.q.q.q.q.  @ 2 a a a 9 9 9 v 1.8.;. .| b <   q.q.q.q.q.q.q.q.",
"q.q.q.q.q.q.X @ 7 7 O + 5 i 9 v 1.7.-.' n s #   q.q.q.q.q.q.q.q.",
"q.q.q.q.q.q.  8 { [ 4 2 ] <.,.1.9.5.@.n 9 # O X q.q.q.q.q.q.q.q.",
"q.q.q.q.q.q.  9 +.&.u y %.3.3.3.2.*.} k =       q.q.q.q.q.q.q.q.",
"q.q.q.q.q.q.  - D W S S L Q Q Q Q K H V *   q.q.q.q.q.q.q.q.q.q.",
"q.q.q.q.q.q.  * t G E E G F F F C F F V * . q.q.q.q.q.q.q.q.q.q.",
"q.q.q.q.q.q.  : j Y T T Y I I I I U U j : % r A q.q.q.q.q.q.q.q.",
"q.q.q.q.q.q.  < c ^ b x x x x b ~ _ _ x , & N A q.q.q.q.q.q.q.q.",
"q.q.q.q.q.q.  < c b 9 > , < < 9 b _ _ x , & N A q.q.q.q.q.q.q.q.",
"q.q.q.q.q.q.  , f g 7 # O . + 3 f n ^ x , & N A q.q.q.q.q.q.q.q.",
"q.q.q.q.q.q.q.q.: 8 h d # $ q e 3 i n c < * N Z Z Z q.q.q.q.q.q.",
"q.q.q.q.q.q.q.q.  : g f ; $ N B % ; f d # $ r A A Z q.q.q.q.q.q.",
"q.q.q.q.q.q.q.q.q.q., # O + q.q.q.q.> # O + q.q.q.q.q.q.q.q.q.q.",
"q.q.q.q.q.q.q.q.q.q.  X X X q.q.q.q.  X X X q.q.q.q.q.q.q.q.q.q.",
"q.q.q.q.q.q.q.q.q.q.q.q.q.q.q.q.q.q.q.q.q.q.q.q.q.q.q.q.q.q.q.q.",
"q.q.q.q.q.q.q.q.q.q.q.q.q.q.q.q.q.q.q.q.q.q.q.q.q.q.q.q.q.q.q.q.",
"q.q.q.q.q.q.q.q.q.q.q.q.q.q.q.q.q.q.q.q.q.q.q.q.q.q.q.q.q.q.q.q.",
"q.q.q.q.q.q.q.q.q.q.q.q.q.q.q.q.q.q.q.q.q.q.q.q.q.q.q.q.q.q.q.q."
};
