/* XPM */
static char *Aknight32_0[] = {
/* columns rows colors chars-per-pixel */
"32 32 124 2 ",
"   c #020204",
".  c #0B0304",
"X  c #060608",
"o  c #0C0A0C",
"O  c #11090A",
"+  c #0E0E10",
"@  c #141416",
"#  c #1B1A1D",
"$  c #240B0D",
"%  c #2B0D0E",
"&  c #250E10",
"*  c #2B0F10",
"=  c #2B1315",
"-  c #331D1F",
";  c #1D1D20",
":  c #241D21",
">  c #212125",
",  c #252529",
"<  c #262A2E",
"1  c #292B2F",
"2  c #3A2124",
"3  c #292D31",
"4  c #302F31",
"5  c #2F3032",
"6  c #333336",
"7  c #3A3A3C",
"8  c #651C1C",
"9  c #6A1F1F",
"0  c #661F20",
"q  c #472629",
"w  c #40393A",
"e  c #6D2425",
"r  c #7A2424",
"t  c #782F33",
"y  c #7B3335",
"u  c #634739",
"i  c #674A3C",
"p  c #3D3D40",
"a  c #3E4248",
"s  c #424243",
"d  c #41444A",
"f  c #4C484E",
"g  c #4F4C52",
"h  c #534E54",
"j  c #565158",
"k  c #58545A",
"l  c #6A4E54",
"z  c #6C5157",
"x  c #70555A",
"c  c #7B575D",
"v  c #5F6970",
"b  c #636269",
"n  c #68656C",
"m  c #6E6D6E",
"M  c #6C6B72",
"N  c #706D75",
"B  c #727179",
"V  c #822626",
"C  c #892727",
"Z  c #8A2829",
"A  c #923030",
"S  c #AD3232",
"D  c #B13333",
"F  c #B35B2D",
"G  c #C56A3F",
"H  c #9F3D40",
"J  c #A03D40",
"K  c #954E4F",
"L  c #9C494D",
"P  c #9D5558",
"I  c #A64243",
"U  c #BF6253",
"Y  c #915E64",
"T  c #8B686F",
"R  c #99776F",
"E  c #8D6A71",
"W  c #916C72",
"Q  c #BC7475",
"!  c #C36455",
"~  c #C66565",
"^  c #747B83",
"/  c #827C85",
"(  c #917A82",
")  c #76848C",
"_  c #7A848C",
"`  c #84828B",
"'  c #89848E",
"]  c #8B8C96",
"[  c #8B8F99",
"{  c #8B939C",
"}  c #919293",
"|  c #92959A",
" . c #969999",
".. c #AA9197",
"X. c #9297A1",
"o. c #9C9DA5",
"O. c #95A2AC",
"+. c #98A6B1",
"@. c #9AA9B3",
"#. c #9BAEB8",
"$. c #9EB1BB",
"%. c #BAA3A4",
"&. c #A1B4BE",
"*. c #A8B4BC",
"=. c #B2B6B8",
"-. c #C6A7A2",
";. c #AEBDC5",
":. c #B6C4CB",
">. c #B9C7CF",
",. c #BBC9D1",
"<. c #C3C4C4",
"1. c #C5C8C8",
"2. c #CFD3D8",
"3. c #D2D2D3",
"4. c #EED7D7",
"5. c #F5D5D5",
"6. c #D5DDE1",
"7. c #E7DFE0",
"8. c #E8EDEF",
"9. c #E9EEF0",
"0. c #ECF1F3",
"q. c #F2F3F4",
"w. c #F2F7F9",
"e. c None",
/* pixels */
"e.e.e.e.e.e.e.e.e.e.e.e.e.e.e.e.X X X X X X e.e.e.e.e.e.e.e.e.e.",
"e.e.e.e.e.e.e.e.e.e.e.e.e.e.e.e.& = = $ O X e.e.e.e.e.e.e.e.e.e.",
"e.e.e.e.e.e.e.e.e.e.e.e.e.e.X & e C Z 0 & X e.e.e.e.e.e.e.e.e.e.",
"e.e.e.e.e.e.e.e.e.e.e.e.e.e.  = A J A 9 * X e.e.e.e.e.e.e.e.e.e.",
"e.e.e.e.e.e.e.e.              : x c q % e.e.e.e.e.e.e.e.e.e.e.e.",
"e.e.e.e.e.e.e.e.< 3 1 1 3 1 1 d N N 7 # e.e.e.e.e.e.e.e.e.e.e.e.",
"e.e.e.e.e.e.  < v _ ) ) ) ) ) _ ' B n g :   e.e.e.e.e.e.e.e.e.e.",
"e.e.e.e.e.e.  3 ) &.$.$.#.$.#.+.{ ] ] B p ; e.e.e.e.e.e.e.e.e.e.",
"e.e.e.e.e.e.  3 ) $.$.#.#.#.$.+.O.O.+.{ B g :   e.e.e.e.e.e.e.e.",
"e.e.e.e.e.e.  5 { ,.>.:.:.:.:.:.:.;.&.+.X.M ,   e.e.e.e.e.e.e.e.",
"e.e.e.e.e.e.  7 =.w.q.0.0.0.0.0.9.6.;.@.+.^ 3   e.e.e.e.e.e.e.e.",
"e.e.e.e.e.e.  6 } <.1.<.<.<.<.3.q.9.:.#.$.) 3   e.e.e.e.e.e.e.e.",
"e.e.e.e.e.e.  @ 4 s d s p 7 7 m 3.9.:.#.$.) 1   e.e.e.e.e.e.e.e.",
"e.e.e.e.e.e.X @ 6 6 O + 4 7 7 m 3.9.:.#.@.^ <   e.e.e.e.e.e.e.e.",
"e.e.e.e.e.e.  6  .| 4 1 } 1.<.3.q.8.:.+.| M ,   e.e.e.e.e.e.e.e.",
"e.e.e.e.e.e.  w %.-.i u -.5.5.4.7.2.*.{ B f #   e.e.e.e.e.e.e.e.",
"e.e.e.e.e.e.  - K U F F U ~ ~ Q ..o.| B p # +   e.e.e.e.e.e.e.e.",
"e.e.e.e.e.e.X = t F ! G F H J L Y W W z :       e.e.e.e.e.e.e.e.",
"e.e.e.e.e.e.  : l E R R E T T Y L I I y =   e.e.e.e.e.e.e.e.e.e.",
"e.e.e.e.e.e.  , M { [ [ [ [ [ ( P J I y = o e.e.e.e.e.e.e.e.e.e.",
"e.e.e.e.e.e.  3 ^ @.@.+.+.@.@.X.( W W l : & r D e.e.e.e.e.e.e.e.",
"e.e.e.e.e.e.  3 ^ o._ ) ) ) ) ) ` ` ' b , * Z D e.e.e.e.e.e.e.e.",
"e.e.e.e.e.e.  , N ^ d 3 3 3 3 a N ' ' b ; * V S S S e.e.e.e.e.e.",
"e.e.e.e.e.e.  : h j 6 ; o . O 2 h N / b , * V D S S e.e.e.e.e.e.",
"e.e.e.e.e.e.e.e.; 6 k g ; O 8 e 2 p N n , * V D S S e.e.e.e.e.e.",
"e.e.e.e.e.e.e.e.  : k g ; * V C % ; h g ; $ r D S S e.e.e.e.e.e.",
"e.e.e.e.e.e.e.e.e.e., ; + O e.e.e.e.> # + O e.e.e.e.e.e.e.e.e.e.",
"e.e.e.e.e.e.e.e.e.e.    X X e.e.e.e.    X X e.e.e.e.e.e.e.e.e.e.",
"e.e.e.e.e.e.e.e.e.e.e.e.e.e.e.e.e.e.e.e.e.e.e.e.e.e.e.e.e.e.e.e.",
"e.e.e.e.e.e.e.e.e.e.e.e.e.e.e.e.e.e.e.e.e.e.e.e.e.e.e.e.e.e.e.e.",
"e.e.e.e.e.e.e.e.e.e.e.e.e.e.e.e.e.e.e.e.e.e.e.e.e.e.e.e.e.e.e.e.",
"e.e.e.e.e.e.e.e.e.e.e.e.e.e.e.e.e.e.e.e.e.e.e.e.e.e.e.e.e.e.e.e."
};
