/* XPM */
static char *Aknight32_2[] = {
/* columns rows colors chars-per-pixel */
"32 32 119 2 ",
"   c #020204",
".  c #0D0507",
"X  c #060608",
"o  c #0B0B0E",
"O  c #11090A",
"+  c #0E0E10",
"@  c #141416",
"#  c #1B1B1E",
"$  c #240B0D",
"%  c #2B0D0E",
"&  c #250E10",
"*  c #2B0F10",
"=  c #2B1214",
"-  c #331D1F",
";  c #1D1D21",
":  c #231E21",
">  c #222226",
",  c #252529",
"<  c #262A2E",
"1  c #292B2E",
"2  c #3B2224",
"3  c #2A2E31",
"4  c #302F31",
"5  c #2F3032",
"6  c #333336",
"7  c #353338",
"8  c #393A3D",
"9  c #651C1D",
"0  c #661F20",
"q  c #6B1F20",
"w  c #472629",
"e  c #442D31",
"r  c #40393A",
"t  c #6E2425",
"y  c #7A2324",
"u  c #7A3134",
"i  c #7E3638",
"p  c #634739",
"a  c #674A3C",
"s  c #3C3C40",
"d  c #424243",
"f  c #414348",
"g  c #4C484E",
"h  c #4F4C52",
"j  c #544E54",
"k  c #565258",
"l  c #58545B",
"z  c #6A4F55",
"x  c #6C5056",
"c  c #70555A",
"v  c #7B575D",
"b  c #5F6970",
"n  c #636269",
"m  c #68656C",
"M  c #6E6D6E",
"N  c #6C6A71",
"B  c #716D75",
"V  c #727179",
"C  c #822626",
"Z  c #892727",
"A  c #8A2829",
"S  c #923030",
"D  c #AD3232",
"F  c #B23434",
"G  c #B35B2D",
"H  c #894346",
"J  c #954E4F",
"K  c #A34143",
"L  c #AE4F43",
"P  c #B25455",
"I  c #BD5D5E",
"U  c #BF6253",
"Y  c #8F6B72",
"T  c #916C73",
"R  c #947173",
"E  c #9D7B73",
"W  c #C66C41",
"Q  c #C86D41",
"!  c #C36455",
"~  c #C46565",
"^  c #737B83",
"/  c #7E7B84",
"(  c #827C85",
")  c #76848C",
"_  c #85838C",
"`  c #89858E",
"'  c #91838B",
"]  c #8C8B95",
"[  c #8C939C",
"{  c #919293",
"}  c #949698",
"|  c #969999",
" . c #9297A1",
".. c #96A3AD",
"X. c #99A7B1",
"o. c #9AAAB5",
"O. c #9BAEB8",
"+. c #9EB1BB",
"@. c #BAA3A4",
"#. c #A1B4BE",
"$. c #B2B6B8",
"%. c #C3A5A0",
"&. c #C8A9A5",
"*. c #AEBDC5",
"=. c #B6C4CC",
"-. c #B9C7CF",
";. c #BBC9D1",
":. c #C3C4C4",
">. c #C5C8C8",
",. c #D2D2D3",
"<. c #EFCFCF",
"1. c #F4D4D4",
"2. c #D5DDE1",
"3. c #E8EDEF",
"4. c #E9EEF1",
"5. c #ECF1F3",
"6. c #F2F3F4",
"7. c #F2F7F9",
"8. c None",
/* pixels */
"8.8.8.8.8.8.8.8.8.8.8.8.8.8.8.8.8.8.8.8.8.8.8.8.8.8.8.8.8.8.8.8.",
"8.8.8.8.8.8.8.8.8.8.8.8.8.8.8.8.8.8.8.8.8.8.8.8.8.8.8.8.8.8.8.8.",
"8.8.8.8.8.8.8.8.8.8.8.8.8.8.8.8.  X   X X X 8.8.8.8.8.8.8.8.8.8.",
"8.8.8.8.8.8.8.8.8.8.8.8.8.8.8.8.* = = & . X 8.8.8.8.8.8.8.8.8.8.",
"8.8.8.8.8.8.8.8.8.8.8.8.8.8.X * q Z A 0 & X 8.8.8.8.8.8.8.8.8.8.",
"8.8.8.8.8.8.8.8.8.8.8.8.8.8.  = i K S q =   8.8.8.8.8.8.8.8.8.8.",
"8.8.8.8.8.8.8.8.              : c v w $ 8.8.8.8.8.8.8.8.8.8.8.8.",
"8.8.8.8.8.8.8.8.< 1 3 3 3 < 1 f V N s ; 8.8.8.8.8.8.8.8.8.8.8.8.",
"8.8.8.8.8.8.  < m ) ) ) ) ) ) ) ( V N j #   8.8.8.8.8.8.8.8.8.8.",
"8.8.8.8.8.8.  3 ) +.+.+.+.+.+...} ] ] V 8 : 8.8.8.8.8.8.8.8.8.8.",
"8.8.8.8.8.8.  3 ) #.+.+.O.O.O.o.......[ V h :   8.8.8.8.8.8.8.8.",
"8.8.8.8.8.8.  5 [ ;.-.-.=.=.=.=.=.*.#.X. .N ,   8.8.8.8.8.8.8.8.",
"8.8.8.8.8.8.  8 $.7.6.6.5.5.5.5.4.2.*.o.o.^ <   8.8.8.8.8.8.8.8.",
"8.8.8.8.8.8.  6 { >.>.:.:.:.:.,.6.3.=.O.+.) 3   8.8.8.8.8.8.8.8.",
"8.8.8.8.8.8.  @ 4 d d d s 7 8 M ,.5.=.O.+.) 3   8.8.8.8.8.8.8.8.",
"8.8.8.8.8.8.X @ 6 1 + + 4 s 8 M ,.5.=.o.X.^ <   8.8.8.8.8.8.8.8.",
"8.8.8.8.8.8.  7 | } 3 < { >.:.,.6.3.;.O. .N >   8.8.8.8.8.8.8.8.",
"8.8.8.8.8.8.  r @.&.a p %.1.1.1.<.&.@.' B g ;   8.8.8.8.8.8.8.8.",
"8.8.8.8.8.8.  - J ! G G U ~ ~ ~ ~ I P H e ; + X 8.8.8.8.8.8.8.8.",
"8.8.8.8.8.8.  = u L Q W L K K K D J K i =       8.8.8.8.8.8.8.8.",
"8.8.8.8.8.8.  : x T E E R Y T T Y Y T z :   8.8.8.8.8.8.8.8.8.8.",
"8.8.8.8.8.8.  , m / N n n n b M ( _ ` n > O 8.8.8.8.8.8.8.8.8.8.",
"8.8.8.8.8.8.  , m B s ; > > > 8 N ` ` n > $ y F 8.8.8.8.8.8.8.8.",
"8.8.8.8.8.8.  > j k 6 # o . O 2 j B ( n > * C F 8.8.8.8.8.8.8.8.",
"8.8.8.8.8.8.8.8.: 6 l h # $ 9 t 2 s N m > % C F F D 8.8.8.8.8.8.",
"8.8.8.8.8.8.8.8.  : k j ; $ C Z % ; k h ; $ y F D D 8.8.8.8.8.8.",
"8.8.8.8.8.8.8.8.8.8.> ; + O 8.8.8.8.> ; o O 8.8.8.8.8.8.8.8.8.8.",
"8.8.8.8.8.8.8.8.8.8.    X X 8.8.8.8.    X X 8.8.8.8.8.8.8.8.8.8.",
"8.8.8.8.8.8.8.8.8.8.8.8.8.8.8.8.8.8.8.8.8.8.8.8.8.8.8.8.8.8.8.8.",
"8.8.8.8.8.8.8.8.8.8.8.8.8.8.8.8.8.8.8.8.8.8.8.8.8.8.8.8.8.8.8.8.",
"8.8.8.8.8.8.8.8.8.8.8.8.8.8.8.8.8.8.8.8.8.8.8.8.8.8.8.8.8.8.8.8.",
"8.8.8.8.8.8.8.8.8.8.8.8.8.8.8.8.8.8.8.8.8.8.8.8.8.8.8.8.8.8.8.8."
};
