/* XPM */
static char *Dknight32_3[] = {
/* columns rows colors chars-per-pixel */
"32 32 128 2 ",
"   c #020204",
".  c #060608",
"X  c #0E0709",
"o  c #0C0A0C",
"O  c #0C0406",
"+  c #12090A",
"@  c #0E0E10",
"#  c #141416",
"$  c #1B1A1E",
"%  c #230C0D",
"&  c #2C0D0F",
"*  c #2C0F10",
"=  c #2B1315",
"-  c #241B1E",
";  c #331D1F",
":  c #1E1E21",
">  c #231E21",
",  c #1F2125",
"<  c #222226",
"1  c #252529",
"2  c #262A2E",
"3  c #292B2E",
"4  c #3B2224",
"5  c #2A2D31",
"6  c #302F31",
"7  c #2F3032",
"8  c #333336",
"9  c #353338",
"0  c #3A3A3D",
"q  c #4E1E1F",
"w  c #641C1D",
"e  c #6C1F20",
"r  c #40393A",
"t  c #6E2425",
"y  c #7A2424",
"u  c #7B3234",
"i  c #634739",
"p  c #674A3C",
"a  c #3C3C40",
"s  c #3F4348",
"d  c #424243",
"f  c #4C484E",
"g  c #4E4C52",
"h  c #534D54",
"j  c #565258",
"k  c #58545B",
"l  c #6A4F55",
"z  c #6C5157",
"x  c #6E545A",
"c  c #5F6970",
"v  c #636269",
"b  c #68656C",
"n  c #6E6D6E",
"m  c #6C6B72",
"M  c #706C75",
"N  c #6E7078",
"B  c #717179",
"V  c #822626",
"C  c #8B2727",
"Z  c #803638",
"A  c #8C393B",
"S  c #AD3232",
"D  c #B23433",
"F  c #B35B2D",
"G  c #954E4F",
"H  c #A34144",
"J  c #AE4F43",
"K  c #AE4B4C",
"L  c #B04F43",
"P  c #A35559",
"I  c #BC5B5B",
"U  c #BF6253",
"Y  c #925E63",
"T  c #8F6B72",
"R  c #916C73",
"E  c #947173",
"W  c #9D7B73",
"Q  c #90737B",
"!  c #C66C41",
"~  c #C86D41",
"^  c #C36455",
"/  c #C46565",
"(  c #737B83",
")  c #7E7B84",
"_  c #887B84",
"`  c #827C85",
"'  c #76848C",
"]  c #79858D",
"[  c #85828C",
"{  c #89858E",
"}  c #8B8B95",
"|  c #8B939C",
" . c #919293",
".. c #949698",
"X. c #969999",
"o. c #A88489",
"O. c #9296A0",
"+. c #9398A1",
"@. c #96A4AE",
"#. c #99A7B1",
"$. c #9AABB5",
"%. c #9CAEB9",
"&. c #9EB1BB",
"*. c #BAA3A4",
"=. c #A8AAB2",
"-. c #A1B3BD",
";. c #B2B6B8",
":. c #C3A5A0",
">. c #C8A9A5",
",. c #D7B6B7",
"<. c #ADBCC4",
"1. c #B2BDC5",
"2. c #B6C4CC",
"3. c #B9C7CF",
"4. c #BBC9D1",
"5. c #C3C4C4",
"6. c #C5C8C8",
"7. c #D2D3D3",
"8. c #EFD0D0",
"9. c #F4D5D5",
"0. c #D4DCE0",
"q. c #E5E6E8",
"w. c #E8EDEF",
"e. c #EAEEF0",
"r. c #EDF1F3",
"t. c #F2F3F4",
"y. c #F2F7F9",
"u. c None",
/* pixels */
"u.u.u.u.u.u.u.u.u.u.u.u.u.u.. . u.u.u.u.u.u.u.u.u.u.u.u.u.u.u.u.",
"u.u.u.u.u.u.u.u.u.u.u.u.u.u.& & u.u.u.u.u.u.u.u.u.u.u.u.u.u.u.u.",
"u.u.u.u.u.u.u.u.u.u.. . . * t e * . u.u.u.u.u.u.u.u.u.u.u.u.u.u.",
"u.u.u.u.u.u.u.u.u.u.. X + q A Z =   u.u.u.u.u.u.u.u.u.u.u.u.u.u.",
"u.u.u.u.u.u.u.u.u.u.. % e A Y x >               u.u.u.u.u.u.u.u.",
"u.u.u.u.u.u.u.u.u.u.  = u P Q m s 2 5 3 3 3 2 2 u.u.u.u.u.u.u.u.",
"u.u.u.u.u.u.u.u.u.u.  > z Q _ ` ] ' ' ' ' ' ] c 2   u.u.u.u.u.u.",
"u.u.u.u.u.u.u.u.u.u.: a N } } | #.&.-.&.&.&.<.' 5   u.u.u.u.u.u.",
"u.u.u.u.u.u.u.u.  > h B | @.@.#.$.&.&.&.%.-.-.' 5   u.u.u.u.u.u.",
"u.u.u.u.u.u.u.u.  1 m +.$.%.$.$.$.$.$.$.$.%.%.' 3   u.u.u.u.u.u.",
"u.u.u.u.u.u.u.u.  3 ( $.$.$.$.$.$.$.$.$.$.$.%.' 5   u.u.u.u.u.u.",
"u.u.u.u.u.u.u.u.  5 ' &.%.-.<.2.2.2.2.2.2.3.4.| 7   u.u.u.u.u.u.",
"u.u.u.u.u.u.u.u.  5 ' &.%.<.0.e.r.e.r.r.r.y.y.;.0   u.u.u.u.u.u.",
"u.u.u.u.u.u.u.u.  2 ( $.$.2.w.t.7.5.5.5.6.6.6. .8   u.u.u.u.u.u.",
"u.u.u.u.u.u.u.u.  1 m +.@.2.r.7.n 0 0 0 d d d 3 #   u.u.u.u.u.u.",
"u.u.u.u.u.u.u.u.  $ f M | 1.e.7.n 0 a 6 + o 8 8 # . u.u.u.u.u.u.",
"u.u.u.u.u.u.u.u.. o $ 0 M =.q.t.7.5.6. .3 5 ..X.9   u.u.u.u.u.u.",
"u.u.u.u.u.u.u.u.      - z o.,.8.9.9.9.:.i p >.*.0   u.u.u.u.u.u.",
"u.u.u.u.u.u.u.u.u.u.  = Z K I / / / / U F F ^ G ;   u.u.u.u.u.u.",
"u.u.u.u.u.u.u.u.u.u.O = Z H H A H H H J ~ ~ J u =   u.u.u.u.u.u.",
"u.u.u.u.u.u.u.u.D y & > l R R T T T T E W W E l >   u.u.u.u.u.u.",
"u.u.u.u.u.u.u.u.D V * < v { { ) m v v v v m ` b 1   u.u.u.u.u.u.",
"u.u.u.u.u.u.u.u.D V * < v { { m 0 1 1 < , 0 m b 1   u.u.u.u.u.u.",
"u.u.u.u.u.u.u.u.D V * < v ` M h 4 + O o $ 8 j h <   u.u.u.u.u.u.",
"u.u.u.u.u.u.S S S V = 1 b M a 4 t w % $ g k 9 > u.u.u.u.u.u.u.u.",
"u.u.u.u.u.u.S D D y % $ g h : & C V % : h j >   u.u.u.u.u.u.u.u.",
"u.u.u.u.u.u.u.u.u.u.+ o $ , u.u.u.u.+ o $ < u.u.u.u.u.u.u.u.u.u.",
"u.u.u.u.u.u.u.u.u.u.. . .   u.u.u.u.. . .   u.u.u.u.u.u.u.u.u.u.",
"u.u.u.u.u.u.u.u.u.u.u.u.u.u.u.u.u.u.u.u.u.u.u.u.u.u.u.u.u.u.u.u.",
"u.u.u.u.u.u.u.u.u.u.u.u.u.u.u.u.u.u.u.u.u.u.u.u.u.u.u.u.u.u.u.u.",
"u.u.u.u.u.u.u.u.u.u.u.u.u.u.u.u.u.u.u.u.u.u.u.u.u.u.u.u.u.u.u.u.",
"u.u.u.u.u.u.u.u.u.u.u.u.u.u.u.u.u.u.u.u.u.u.u.u.u.u.u.u.u.u.u.u."
};
