/* XPM */
static char *Dknight32_1[] = {
/* columns rows colors chars-per-pixel */
"32 32 129 2 ",
"   c #020204",
".  c #0D0507",
"X  c #060608",
"o  c #0B0B0E",
"O  c #11090A",
"+  c #0E0E10",
"@  c #141416",
"#  c #1B1B1E",
"$  c #240B0D",
"%  c #2B0D0E",
"&  c #250E10",
"*  c #2B0F10",
"=  c #2B1214",
"-  c #251C1F",
";  c #301112",
":  c #331D1F",
">  c #1D1D21",
",  c #231E21",
"<  c #1F2125",
"1  c #222226",
"2  c #252529",
"3  c #262A2E",
"4  c #292B2E",
"5  c #3B2224",
"6  c #2A2E31",
"7  c #302F31",
"8  c #2F3032",
"9  c #333336",
"0  c #353338",
"q  c #393A3D",
"w  c #691F1F",
"e  c #651C1D",
"r  c #661F20",
"t  c #6B1F20",
"y  c #472629",
"u  c #442D31",
"i  c #40393A",
"p  c #6E2425",
"a  c #7A2324",
"s  c #7A3134",
"d  c #7E3638",
"f  c #634739",
"g  c #674A3C",
"h  c #3C3C40",
"j  c #424243",
"k  c #414348",
"l  c #4C484E",
"z  c #4F4C52",
"x  c #544E54",
"c  c #565258",
"v  c #58545B",
"b  c #6A4F55",
"n  c #6C5056",
"m  c #70555A",
"M  c #7B575D",
"N  c #5F6970",
"B  c #636269",
"V  c #68656C",
"C  c #6E6D6E",
"Z  c #6C6A71",
"A  c #716D75",
"S  c #727179",
"D  c #822626",
"F  c #892727",
"G  c #8A2829",
"H  c #923030",
"J  c #AD3232",
"K  c #B23434",
"L  c #B35B2D",
"P  c #894346",
"I  c #954E4F",
"U  c #A34143",
"Y  c #AE4F43",
"T  c #B04F43",
"R  c #B25455",
"E  c #BD5D5E",
"W  c #BF6253",
"Q  c #8F6B72",
"!  c #916C73",
"~  c #947173",
"^  c #9D7B73",
"/  c #C66C41",
"(  c #C86D41",
")  c #C36455",
"_  c #C46565",
"`  c #7C7780",
"'  c #737B83",
"]  c #7E7B84",
"[  c #827C85",
"{  c #76848C",
"}  c #7A848C",
"|  c #85838C",
" . c #89858E",
".. c #91838B",
"X. c #8C8B95",
"o. c #8C939C",
"O. c #919293",
"+. c #949698",
"@. c #969999",
"#. c #9297A1",
"$. c #B39EA4",
"%. c #96A3AD",
"&. c #97A7B2",
"*. c #99A7B1",
"=. c #9AAAB5",
"-. c #9BAEB8",
";. c #9EB1BB",
":. c #BAA3A4",
">. c #A1B4BE",
",. c #B2B6B8",
"<. c #C3A5A0",
"1. c #C8A9A5",
"2. c #AEBDC5",
"3. c #DABEC0",
"4. c #B6C4CC",
"5. c #B9C7CF",
"6. c #BBC9D1",
"7. c #C3C4C4",
"8. c #C5C8C8",
"9. c #D2D2D3",
"0. c #EFCFCF",
"q. c #F4D4D4",
"w. c #D5DDE1",
"e. c #E8EDEF",
"r. c #E9EEF1",
"t. c #ECF1F3",
"y. c #F2F3F4",
"u. c #F2F7F9",
"i. c None",
/* pixels */
"i.i.i.i.i.i.i.i.i.i.i.i.i.i.i.i.i.i.i.i.i.i.i.i.i.i.i.i.i.i.i.i.",
"i.i.i.i.i.i.i.i.i.i.i.i.i.i.i.i.i.i.i.i.i.i.i.i.i.i.i.i.i.i.i.i.",
"i.i.i.i.i.i.i.i.i.i.X X X   X   i.i.i.i.i.i.i.i.i.i.i.i.i.i.i.i.",
"i.i.i.i.i.i.i.i.i.i.X . & = = * i.i.i.i.i.i.i.i.i.i.i.i.i.i.i.i.",
"i.i.i.i.i.i.i.i.i.i.X & r G F t * X i.i.i.i.i.i.i.i.i.i.i.i.i.i.",
"i.i.i.i.i.i.i.i.i.i.  = t H U d =   i.i.i.i.i.i.i.i.i.i.i.i.i.i.",
"i.i.i.i.i.i.i.i.i.i.i.i.$ y M m ,               i.i.i.i.i.i.i.i.",
"i.i.i.i.i.i.i.i.i.i.i.i.> h Z S k 4 3 6 6 6 4 3 i.i.i.i.i.i.i.i.",
"i.i.i.i.i.i.i.i.i.i.  # x Z S [ { { { { { { { V 3   i.i.i.i.i.i.",
"i.i.i.i.i.i.i.i.i.i., q S X.X.+.%.;.;.;.;.;.;.{ 6   i.i.i.i.i.i.",
"i.i.i.i.i.i.i.i.  , z S o.%.%.%.=.-.-.-.;.;.>.{ 6   i.i.i.i.i.i.",
"i.i.i.i.i.i.i.i.  2 Z #.*.>.2.4.4.4.4.4.5.5.6.o.8   i.i.i.i.i.i.",
"i.i.i.i.i.i.i.i.  3 ' =.=.2.w.r.t.t.t.t.y.y.u.,.q   i.i.i.i.i.i.",
"i.i.i.i.i.i.i.i.  6 { ;.-.4.e.y.9.7.7.7.7.8.8.O.9   i.i.i.i.i.i.",
"i.i.i.i.i.i.i.i.  6 { ;.-.4.t.9.C q 0 h j j j 7 @   i.i.i.i.i.i.",
"i.i.i.i.i.i.i.i.  3 ' *.=.4.t.9.C q h 7 + + 4 9 @ X i.i.i.i.i.i.",
"i.i.i.i.i.i.i.i.  1 Z #.-.6.e.y.9.7.8.O.3 6 +.@.0   i.i.i.i.i.i.",
"i.i.i.i.i.i.i.i.  > l A ..:.1.0.q.q.q.<.f g 1.:.i   i.i.i.i.i.i.",
"i.i.i.i.i.i.i.i.X + > u P R E _ _ _ _ W L L ) I :   i.i.i.i.i.i.",
"i.i.i.i.i.i.i.i.      = d U I J U U U Y / ( Y s =   i.i.i.i.i.i.",
"i.i.i.i.i.i.i.i.i.i.  , b ! Q Q ! ! Q ~ ^ ^ ! n ,   i.i.i.i.i.i.",
"i.i.i.i.i.i.i.i.i.i.O 1 B  .| [ C N B B B Z ] V 2   i.i.i.i.i.i.",
"i.i.i.i.i.i.i.i.K a $ 1 B  . .Z q 1 1 1 > h A V 2   i.i.i.i.i.i.",
"i.i.i.i.i.i.i.i.K D * 1 B [ A x 5 O . o # 9 c x 1   i.i.i.i.i.i.",
"i.i.i.i.i.i.J K K D % 1 V Z h 5 p e $ # z v 9 , i.i.i.i.i.i.i.i.",
"i.i.i.i.i.i.J J K a $ > z c > % F D $ > x c ,   i.i.i.i.i.i.i.i.",
"i.i.i.i.i.i.i.i.i.i.O o > 1 i.i.i.i.O + > 1 i.i.i.i.i.i.i.i.i.i.",
"i.i.i.i.i.i.i.i.i.i.X X     i.i.i.i.X X     i.i.i.i.i.i.i.i.i.i.",
"i.i.i.i.i.i.i.i.i.i.i.i.i.i.i.i.i.i.i.i.i.i.i.i.i.i.i.i.i.i.i.i.",
"i.i.i.i.i.i.i.i.i.i.i.i.i.i.i.i.i.i.i.i.i.i.i.i.i.i.i.i.i.i.i.i.",
"i.i.i.i.i.i.i.i.i.i.i.i.i.i.i.i.i.i.i.i.i.i.i.i.i.i.i.i.i.i.i.i.",
"i.i.i.i.i.i.i.i.i.i.i.i.i.i.i.i.i.i.i.i.i.i.i.i.i.i.i.i.i.i.i.i."
};
