/* XPM */
static char *Dknight32_0[] = {
/* columns rows colors chars-per-pixel */
"32 32 135 2 ",
"   c #020204",
".  c #060608",
"X  c #0C0A0C",
"o  c #0B0304",
"O  c #11090A",
"+  c #0E0E10",
"@  c #141416",
"#  c #1B1A1D",
"$  c #240B0D",
"%  c #2B0D0E",
"&  c #250E10",
"*  c #2B0F10",
"=  c #2B1315",
"-  c #241C1F",
";  c #301112",
":  c #331D1F",
">  c #1D1D20",
",  c #241D21",
"<  c #212125",
"1  c #252529",
"2  c #262A2E",
"3  c #292B2F",
"4  c #3A2124",
"5  c #292D31",
"6  c #252C30",
"7  c #302F31",
"8  c #2F3032",
"9  c #333336",
"0  c #3A3A3C",
"q  c #6A1F1F",
"w  c #651C1C",
"e  c #661F20",
"r  c #6B1F20",
"t  c #472629",
"y  c #40393A",
"u  c #6D2425",
"i  c #7A2424",
"p  c #782F33",
"a  c #7B3335",
"s  c #7E3638",
"d  c #634739",
"f  c #674A3C",
"g  c #3D3D40",
"h  c #3E4248",
"j  c #424243",
"k  c #41444A",
"l  c #4C484E",
"z  c #4F4C52",
"x  c #534E54",
"c  c #565158",
"v  c #58545A",
"b  c #6A4E54",
"n  c #6C5157",
"m  c #70555A",
"M  c #7B575D",
"N  c #5F6970",
"B  c #636269",
"V  c #68656C",
"C  c #6E6D6E",
"Z  c #6C6B72",
"A  c #706D75",
"S  c #727179",
"D  c #822626",
"F  c #892727",
"G  c #8A2829",
"H  c #923030",
"J  c #AD3232",
"K  c #B13333",
"L  c #B35B2D",
"P  c #C56A3F",
"I  c #9F3D40",
"U  c #A03D40",
"Y  c #954E4F",
"T  c #9C494D",
"R  c #9D5558",
"E  c #A64243",
"W  c #AE4E41",
"Q  c #BF6253",
"!  c #915E64",
"~  c #8B686F",
"^  c #906D6E",
"/  c #99776F",
"(  c #8D6A71",
")  c #916C72",
"_  c #9B7870",
"`  c #BC7475",
"'  c #C36455",
"]  c #C66565",
"[  c #7C7780",
"{  c #747B83",
"}  c #827C85",
"|  c #917A82",
" . c #76848C",
".. c #7A848C",
"X. c #84828B",
"o. c #89848E",
"O. c #808E97",
"+. c #8B8C96",
"@. c #8B8F99",
"#. c #8B939C",
"$. c #919293",
"%. c #92959A",
"&. c #969999",
"*. c #AA9197",
"=. c #9297A1",
"-. c #9698A1",
";. c #9C9DA5",
":. c #95A2AC",
">. c #98A6B1",
",. c #9AA9B3",
"<. c #9BAEB8",
"1. c #9EB1BB",
"2. c #BAA3A4",
"3. c #A1B4BE",
"4. c #A8B4BC",
"5. c #B2B6B8",
"6. c #C6A7A2",
"7. c #AEBDC5",
"8. c #B6C4CB",
"9. c #B9C7CF",
"0. c #BBC9D1",
"q. c #C3C4C4",
"w. c #C5C8C8",
"e. c #CFD3D8",
"r. c #D2D2D3",
"t. c #EED7D7",
"y. c #F5D5D5",
"u. c #D5DDE1",
"i. c #E7DFE0",
"p. c #E8EDEF",
"a. c #E9EEF0",
"s. c #ECF1F3",
"d. c #F2F3F4",
"f. c #F2F7F9",
"g. c None",
/* pixels */
"g.g.g.g.g.g.g.g.g.g.. . . . . . g.g.g.g.g.g.g.g.g.g.g.g.g.g.g.g.",
"g.g.g.g.g.g.g.g.g.g.. O $ = = & g.g.g.g.g.g.g.g.g.g.g.g.g.g.g.g.",
"g.g.g.g.g.g.g.g.g.g.. & e G F u & . g.g.g.g.g.g.g.g.g.g.g.g.g.g.",
"g.g.g.g.g.g.g.g.g.g.. * q H U H =   g.g.g.g.g.g.g.g.g.g.g.g.g.g.",
"g.g.g.g.g.g.g.g.g.g.g.g.% t M m ,               g.g.g.g.g.g.g.g.",
"g.g.g.g.g.g.g.g.g.g.g.g.# 0 A A k 3 3 5 3 3 5 2 g.g.g.g.g.g.g.g.",
"g.g.g.g.g.g.g.g.g.g.  , z V S o... . . . . ...N 2   g.g.g.g.g.g.",
"g.g.g.g.g.g.g.g.g.g.> g S +.+.#.>.<.1.<.1.1.3. .5   g.g.g.g.g.g.",
"g.g.g.g.g.g.g.g.  , z S #.>.:.:.>.1.<.<.<.1.1. .5   g.g.g.g.g.g.",
"g.g.g.g.g.g.g.g.  1 Z =.>.3.7.8.8.8.8.8.8.9.0.#.8   g.g.g.g.g.g.",
"g.g.g.g.g.g.g.g.  5 { >.,.7.u.a.s.s.s.s.s.d.f.5.0   g.g.g.g.g.g.",
"g.g.g.g.g.g.g.g.  5  .1.<.8.a.d.r.q.q.q.q.w.q.$.9   g.g.g.g.g.g.",
"g.g.g.g.g.g.g.g.  3  .1.<.8.a.r.C 0 0 g j k j 7 @   g.g.g.g.g.g.",
"g.g.g.g.g.g.g.g.  2 { ,.<.8.a.r.C 0 0 7 + O 9 9 @ . g.g.g.g.g.g.",
"g.g.g.g.g.g.g.g.  1 Z %.>.8.p.d.r.q.w.$.3 7 %.&.9   g.g.g.g.g.g.",
"g.g.g.g.g.g.g.g.  # l S #.4.e.i.t.y.y.6.d f 6.2.y   g.g.g.g.g.g.",
"g.g.g.g.g.g.g.g.  + # g S %.;.*.` ] ] Q L L Q Y :   g.g.g.g.g.g.",
"g.g.g.g.g.g.g.g.      , n ) ) ! T U I L P ' L p = . g.g.g.g.g.g.",
"g.g.g.g.g.g.g.g.g.g.  = a E E T ! ~ ~ ( / / ( b ,   g.g.g.g.g.g.",
"g.g.g.g.g.g.g.g.g.g.X = a E U R | @.@.@.@.@.#.Z 1   g.g.g.g.g.g.",
"g.g.g.g.g.g.g.g.K i & , b ) ) | =.,.,.>.>.,.,.{ 5   g.g.g.g.g.g.",
"g.g.g.g.g.g.g.g.K G * 1 B o.X.X. . . . . ...;.{ 5   g.g.g.g.g.g.",
"g.g.g.g.g.g.J J J D * > B o.o.A h 5 5 5 5 k { A 1   g.g.g.g.g.g.",
"g.g.g.g.g.g.J J K D * 1 B } A x 4 O o X > 9 c x ,   g.g.g.g.g.g.",
"g.g.g.g.g.g.J J K D * 1 V A g 4 u w O > z v 9 > g.g.g.g.g.g.g.g.",
"g.g.g.g.g.g.J J K i $ > z x > % F D * > z v ,   g.g.g.g.g.g.g.g.",
"g.g.g.g.g.g.g.g.g.g.O + # < g.g.g.g.O + > 1 g.g.g.g.g.g.g.g.g.g.",
"g.g.g.g.g.g.g.g.g.g.. .     g.g.g.g.. .     g.g.g.g.g.g.g.g.g.g.",
"g.g.g.g.g.g.g.g.g.g.g.g.g.g.g.g.g.g.g.g.g.g.g.g.g.g.g.g.g.g.g.g.",
"g.g.g.g.g.g.g.g.g.g.g.g.g.g.g.g.g.g.g.g.g.g.g.g.g.g.g.g.g.g.g.g.",
"g.g.g.g.g.g.g.g.g.g.g.g.g.g.g.g.g.g.g.g.g.g.g.g.g.g.g.g.g.g.g.g.",
"g.g.g.g.g.g.g.g.g.g.g.g.g.g.g.g.g.g.g.g.g.g.g.g.g.g.g.g.g.g.g.g."
};
