/* XPM */
static char *knight32[] = {
/* columns rows colors chars-per-pixel */
"32 32 7 1 ",
"  c None",
". c #060608",
"X c #AC3232",
"o c #DF7126",
"O c #847E87",
"+ c #9BADB7",
"@ c white",
/* pixels */
"          ......                ",
"          ......                ",
"          ..XXXX..              ",
"          ..XXXX..              ",
"            ..OO........        ",
"            ..OO........        ",
"          ..OOOO++++++++..      ",
"          ..OOOO++++++++..      ",
"        ..OO++++++++++++..      ",
"        ..OO++++++++++++..      ",
"        ..++++@@@@@@@@@@..      ",
"        ..++++@@@@@@@@@@..      ",
"        ..++++@@..........      ",
"        ..++++@@..........      ",
"        ..OO++@@@@@@..@@..      ",
"        ..OO++@@@@@@..@@..      ",
"        ....OOOOXXXXooXX..      ",
"        ....OOOOXXXXooXX..      ",
"          ..XXXXOOOOOOOO..      ",
"          ..XXXXOOOOOOOO..      ",
"        XX..OOOO++++++++..      ",
"        XX..OOOO++++++++..      ",
"      XXXX..OOOO......OO..      ",
"      XXXX..OOOO......OO..      ",
"      XXXX..OO..XX..OO..        ",
"      XXXX..OO..XX..OO..        ",
"          ....    ....          ",
"          ....    ....          ",
"                                ",
"                                ",
"                                ",
"                                "
};
