/* XPM */
static char *explosion_anim_f3[] = {
/* columns rows colors chars-per-pixel */
"32 32 6 1 ",
"  c #646066",
". c #F77622",
"X c #FEE761",
"o c #847E87",
"O c #928E95",
"+ c None",
/* pixels */
"++++++++++++++++++++++++++++++++",
"++++++++++++++++++++++++++++++++",
"++++++++++++++++++++++++++++++++",
"++++.+++++++++++++++++++++++.+++",
"+++++.++++++++++.++++++++++.++++",
"++++++X+++++++++X+++++++++X+++++",
"++++++++++++++++++++++++++++++++",
"+++++++++++++++++++    +++++++++",
"+++++++++++++            +++++++",
"++++++++         OOOOOOO +++++++",
"+++++++OOOOOO    OOOOOOOOo++++++",
"++++++oOOOOOO   OOOOOOOOOo++++++",
"++++++oOOOOOO   OOOOOOOOOo++++++",
"+++++++OOOOOO    OOOOO   +++++++",
"++.X+++ OOOO             +++++++",
"+++++++               OOO+++++++",
"+++++++   OOOO    OO  OOO+++X.++",
"+++++++  OOOOOO  OOO   OO+++++++",
"+++++++ OOOOOOOO OOO     +++++++",
"+++++++ OOOOOOOO         +++++++",
"+++++++  OOOOOO    OOOOO  ++++++",
"++++++  OOOO      OOOOOOOOo+++++",
"++++++ OOOOOO    OOOOOOOOOo+++++",
"++++++ OOOOOO    OOOOOOOOOo+++++",
"+++++++OOOOOO     OOOOOOOO++++++",
"++++X++OOOOO+++++++OOOOOo+++++++",
"+++.+++++++++++++++++++++++X++++",
"++.+++++++++++++++++++++++++.+++",
"+++++++++++++++++++++++++++++.++",
"++++++++++++++X+++++++++++++++++",
"++++++++++++++.+++++++++++++++++",
"++++++++++++++++++++++++++++++++"
};
