/* XPM */
static char *explosion_anim_f4[] = {
/* columns rows colors chars-per-pixel */
"32 32 4 1 ",
"  c #646066",
". c #F77622",
"X c #928E95",
"o c None",
/* pixels */
"oooooooooooooooooooooooooooooooo",
"oooooooooooooooooooooooooooooooo",
"ooo.ooooooooooooooooooooooooo.oo",
"oooooooooooooooo.ooooooooooooooo",
"oooooooooooooooooooooooooooooooo",
"oooooooooooooooooooooooooooooooo",
"oooooooooooooooooooooooooooooooo",
"oooooooooooooooooooooooooooooooo",
"ooooooooooooooooooXXXXXXoooooooo",
"ooooooXXXXXooooooXXXXXXXXooooooo",
"ooooooXXXXXXoooooXXXXXXXXooooooo",
"ooooooXXXXXXoooooXXXXXXXXooooooo",
"ooooooXXXXX  oooo XXXXX  ooooooo",
"oooooooXXXX  oooo       oooooooo",
"o.oooooo     ooooo    oooooooooo",
"oooooooooooooooooooooooXXooooooo",
"ooooooooooo   oooooooo XXooooo.o",
"oooooooooXXXX  oo  XXo  oooooooo",
"ooooooooXXXXXX oo XXXooooooooooo",
"ooooooooXXXXXXooooXX   ooooooooo",
"ooooooooXXXXX oooo      oooooooo",
"oooooooooooooooooo  XXXX ooooooo",
"oooooooXXXX    ooo XXXXXX oooooo",
"ooooooXXXXX    oooXXXXXXXXoooooo",
"ooooooXXXXXX  oooo XXXXXXXoooooo",
"ooooooXXXXXX  oooooXXXXXXXoooooo",
"oooooooXXXX  oooooooXXXXXooooooo",
"oooooooooooooooooooooooooooooooo",
"o.oooooooooooooooooooooooooooooo",
"oooooooooooooooooooooooooooooo.o",
"oooooooooooooooooooooooooooooooo",
"oooooooooooooo.ooooooooooooooooo"
};
