/* XPM */
static char *explosion_anim_f2[] = {
/* columns rows colors chars-per-pixel */
"32 32 4 1 ",
"  c #F77622",
". c #FEE761",
"X c white",
"o c None",
/* pixels */
"oooooooooooooooooooooooooooooooo",
"oooooooooooooooooooooooooooooooo",
"oooooooooooooooooooooooooooooooo",
"oooooooooooooooooooooooooooooooo",
"oooooooooooooooooooooooooooooooo",
"oooooooo  oooooo  oooooooooooooo",
"oooooooo   oooo   oooooooooooooo",
"oooooooo           ooo   ooooooo",
"oooooooo  ........       ooooooo",
"oooooooo ...XXXXXX....  oooooooo",
"oooooooo ..XXXXXXXXX... oooooooo",
"ooooooo  ..XXXXXXXXXXX. oooooooo",
"oooo    ...XXXXXXXXXXXX. ooooooo",
"oooo    ..XXXXXXXXXXXXX. ooooooo",
"ooooo  ...XXXXXXXXXXXXX.  oooooo",
"ooooooo ..XXXXXXXXXXXXX..  ooooo",
"ooooooo .XXXXXXXXXXXXXX..   oooo",
"ooooooo .XXXXXXXXXXXXX.. ooooooo",
"ooooooo .XXXXXXXXXXXXX.. ooooooo",
"ooooooo .XXXXXXXXXXXX... ooooooo",
"ooooooo ..XXXXXXXXXXX... ooooooo",
"oooooo  ...XXXXXXXXX...  ooooooo",
"ooooo   ....XXXXXX..      oooooo",
"oooo     .........  oooo  oooooo",
"oooooooo     .... oooooooooooooo",
"oooooooooooo  .. ooooooooooooooo",
"ooooooooooooo    ooooooooooooooo",
"ooooooooooooo   oooooooooooooooo",
"oooooooooooooo  oooooooooooooooo",
"oooooooooooooooooooooooooooooooo",
"oooooooooooooooooooooooooooooooo",
"oooooooooooooooooooooooooooooooo"
};
