/* XPM */
static char *floor32[] = {
/* columns rows colors chars-per-pixel */
"32 32 4 1 ",
"  c #59413E",
". c #514047",
"X c #77514C",
"o c #8D5D57",
/* pixels */
"..XXXXXXXXXX......XXXXXXXXXX....",
"..XXXXXXXXXX......XXXXXXXXXX....",
"XXXXXXXXXXXXoo..XXXXXXXXXXXXoo..",
"XXXXXXXXXXXXoo..XXXXXXXXXXXXoo..",
"XXXXXXXXXXXXoo..XXXXXXXXXXXXoo..",
"XXXXXXXXXXXXoo..XXXXXXXXXXXXoo..",
"XXXXXXXXXXXXoo..XXXXXXXXXXXXoo..",
"XXXXXXXXXXXXoo..XXXXXXXXXXXXoo..",
"XXXXXXXXXXXXoo..XXXXXXXXXXXXoo..",
"XXXXXXXXXXXXoo..XXXXXXXXXXXXoo..",
"XXXXXXXXXXoooo..XXXXXXXXXXoooo..",
"XXXXXXXXXXoooo..XXXXXXXXXXoooo..",
"  oooooooooo  ..  oooooooooo  ..",
"  oooooooooo  ..  oooooooooo  ..",
"..          ......          ....",
"..          ......          ....",
"..XXXXXXXXXX......XXXXXXXXXX....",
"..XXXXXXXXXX......XXXXXXXXXX....",
"XXXXXXXXXXXXoo..XXXXXXXXXXXXoo..",
"XXXXXXXXXXXXoo..XXXXXXXXXXXXoo..",
"XXXXXXXXXXXXoo..XXXXXXXXXXXXoo..",
"XXXXXXXXXXXXoo..XXXXXXXXXXXXoo..",
"XXXXXXXXXXXXoo..XXXXXXXXXXXXoo..",
"XXXXXXXXXXXXoo..XXXXXXXXXXXXoo..",
"XXXXXXXXXXXXoo..XXXXXXXXXXXXoo..",
"XXXXXXXXXXXXoo..XXXXXXXXXXXXoo..",
"XXXXXXXXXXoooo..XXXXXXXXXXoooo..",
"XXXXXXXXXXoooo..XXXXXXXXXXoooo..",
"  oooooooooo  ..  oooooooooo  ..",
"  oooooooooo  ..  oooooooooo  ..",
"..          ......          ....",
"..          ......          ...."
};
