/* XPM */
static char *key32[] = {
/* columns rows colors chars-per-pixel */
"32 32 5 1 ",
"  c None",
". c black",
"X c #A19B36",
"o c gray68",
"O c white",
/* pixels */
"                                ",
"                                ",
"                                ",
"                                ",
"                                ",
"                                ",
"                                ",
"                                ",
"        XXXX                    ",
"        XXXX                    ",
"      XX....XX                  ",
"      XX....XX                  ",
"    XX..OOOO..XXXXXXXXXXXXXXXX  ",
"    XX..OOOO..XXXXXXXXXXXXXXXX  ",
"  XX..OO....OO................XX",
"  XX..OO....OO................XX",
"  XX..oo....ooOOOOOOOOOOOOOO..XX",
"  XX..oo....ooOOOOOOOOOOOOOO..XX",
"  XX..oo....oo........OO..OO..XX",
"  XX..oo....oo........OO..OO..XX",
"    XX..oooo..XXXXXX..........XX",
"    XX..oooo..XXXXXX..........XX",
"      XX....XX      XXXXXXXXXX  ",
"      XX....XX      XXXXXXXXXX  ",
"        XXXX                    ",
"        XXXX                    ",
"                                ",
"                                ",
"                                ",
"                                ",
"                                ",
"                                "
};
