/* XPM */
static char *result[] = {
/* columns rows colors chars-per-pixel */
"23 42 10 1 ",
"  c #0C0E19",
". c #21110D",
"X c #082B0C",
"o c #342319",
"O c #503625",
"+ c #114517",
"@ c #347B2C",
"# c #755338",
"$ c #53A03B",
"% c None",
/* pixels */
"%%%%%%%%%XXXXX%%XX%%%%%",
"%%%%%%%%X@$$$$XX$$X%%%%",
"%%%%%%XX@$$$$$@$$@X%%%%",
"%%%%%X@@$$$$$$$@@XX%%%%",
"%%%%X$$$@$$$$$$$$$@X%%%",
"%%%%X@$$$$$$$$$$$$$@X%%",
"%%%X$$$$$$$$$$$$$$$@X%%",
"%%%X@$$$$$$$$$$$$$$$X%%",
"%%%%X@$$$$$$$$$$@$$$X%%",
"%%%X$$$$$$$$$$$$$@@X%%%",
"%%%X$@$$$$$$$$$$$$$@X%%",
"%%%X@$$$$$$$$$$$$@$$@X%",
"%%X@$$$$$$$$$$$$@+$$$X%",
"%%X@$$$$$$$$$$$$+$@$$X%",
"%%X@$$@$@$$$$$$@$$$+@X%",
"%X@X@$$@$$$$$$$$$$$@X%%",
"%X@$$$$@$$$@$$$$$$$$$X%",
"X@$$$$$$@$$+@$$$$$$$$X%",
"X@$$$$$$$@+$$$$$$$$$XX%",
"X@$+$@$$$$$$$$$$$$$$$X%",
"%X@@++$$$$$$$$$$$$$$$$X",
"%%XX$++$$$$$$$$$$$$@$$X",
"%%X@$$$$$$$$@$@$$$$+$$X",
"%X@$$$$$$$$$@@$$$$+@$@X",
"%X$$$$$$$$$@$$$$@+@+XXX",
"%X@$$$$$$$$$$@$$$$$@+X%",
"%X++@$$@$@$$$$@$$$$@@X%",
"%%XXX+@$$+@$$$@$@@$$@X%",
"%%%X+@$$$@+@$$$$$@X$$X%",
"%%X+@$$$$@+++@$$$@@X$X%",
"%%X+$@$$@$$+@@$$$$@XX%%",
"%%X+++X@$$$@@$$$@$@+X%%",
"%%X++XX$@+@$+$$@+@@@X%%",
"%%%XX+XX+++X+++XX+@@X%%",
"%%%%X++X++XoX+++X++X%%%",
"%%%  XXXXXoOoXXXXXX  %%",
"%%    .oO.###OOo..    %",
"%%    .OOo##OO.#O.    %",
"%%     ...o#O....     %",
"%%%       ....       %%",
"%%%%                %%%",
"%%%%%%%           %%%%%"
};
