/* XPM */
static char *result[] = {
/* columns rows colors chars-per-pixel */
"16 32 4 1 ",
"  c #242A3D",
". c #414B66",
"X c #677598",
"o c #8F9AB0",
/* pixels */
"ooXX.XoXXo ..ooX",
"XXX  .XXXX   XXX",
".... XXX..X XXX.",
".... X..... XX..",
".... .X.... ..X.",
"...   ....   ...",
"       XXX.     ",
"XXX   XX..X .XXX",
"XXXX X..X...XXXX",
"...X ......XXX..",
".... ..... X....",
"...         ....",
"XXXXXXX  .XXXX. ",
"XX....XX XXX..X ",
".....X.. X..... ",
"........  ....  ",
".......         ",
"XXX  .XXXX   XXX",
".... XXX..X XXX.",
".... X..... XX..",
".... .X.... ..X.",
"...   ....   ...",
"       XXX.     ",
"XXX   XX..X .XXX",
"XXXX X..X...XXXX",
"...X ......XXX..",
".... ..... X....",
"...         ....",
"XXXXXXX  .XXXX. ",
"XX....XX XXX..X ",
".....X.. X..... ",
"........  ....  "
};
