/* XPM */
static char *wall32[] = {
/* columns rows colors chars-per-pixel */
"32 32 4 1 ",
"  c #353E50",
". c #434F65",
"X c #5A6988",
"o c #6F7F9F",
/* pixels */
"..              ..              ",
"..              ..              ",
"..oooooooooooooo..oooooooooooooo",
"..oooooooooooooo..oooooooooooooo",
"..ooXXXXXXXXXXoo..ooXXXXXXXXXXoo",
"..ooXXXXXXXXXXoo..ooXXXXXXXXXXoo",
"        ..              ..      ",
"        ..              ..      ",
"oooooooo..oooooooooooooo..oooooo",
"oooooooo..oooooooooooooo..oooooo",
"XXXXXXoo..ooXXXXXXXXXXoo..ooXXXX",
"XXXXXXoo..ooXXXXXXXXXXoo..ooXXXX",
"XXXXXXXX....XXXXXXXXXXXX..XXXXXX",
"XXXXXXXX....XXXXXXXXXXXX..XXXXXX",
"..              ..              ",
"..              ..              ",
"..oooooooooooooo..oooooooooooooo",
"..oooooooooooooo..oooooooooooooo",
"..ooXXXXXXXXXXoo..ooXXXXXXXXXXoo",
"..ooXXXXXXXXXXoo..ooXXXXXXXXXXoo",
"..XXXX..XXXXXXXX..XXXXXXXXXXXXXX",
"..XXXX..XXXXXXXX..XXXXXXXXXXXXXX",
"        ..              ..      ",
"        ..              ..      ",
"oooooooo..oooooooooooooo..oooooo",
"oooooooo..oooooooooooooo..oooooo",
"XXXXXXoo..ooXXXXXXXXXXoo..ooXXXX",
"XXXXXXoo..ooXXXXXXXXXXoo..ooXXXX",
"XXXXXXXX..XXXXXXXXXXXXXX..XXXXXX",
"XXXXXXXX..XXXXXXXXXXXXXX..XXXXXX",
"................................",
"................................"
};
